<svg width="50" height="50" viewBox="0 0 50 50" fill="none" xmlns="http://www.w3.org/2000/svg">
<path d="M25 0L42.6777 7.32233L50 25L42.6777 42.6777L25 50L7.32233 42.6777L0 25L7.32233 7.32233L25 0Z" fill="#83CDF0"/>
<g clip-path="url(#clip0_22:3200)">
<path d="M25 19.1992C26.0679 19.1992 26.9336 18.3335 26.9336 17.2656C26.9336 16.1977 26.0679 15.332 25 15.332C23.9321 15.332 23.0664 16.1977 23.0664 17.2656C23.0664 18.3335 23.9321 19.1992 25 19.1992Z" fill="white"/>
<path d="M17.2227 28.2227C18.2906 28.2227 19.1562 27.357 19.1562 26.2891C19.1562 25.2212 18.2906 24.3555 17.2227 24.3555C16.1548 24.3555 15.2891 25.2212 15.2891 26.2891C15.2891 27.357 16.1548 28.2227 17.2227 28.2227Z" fill="white"/>
<path d="M32.7773 28.2227C33.8452 28.2227 34.7109 27.357 34.7109 26.2891C34.7109 25.2212 33.8452 24.3555 32.7773 24.3555C31.7094 24.3555 30.8438 25.2212 30.8438 26.2891C30.8438 27.357 31.7094 28.2227 32.7773 28.2227Z" fill="white"/>
<path d="M32.7773 28.2227C31.7287 28.2227 30.8046 28.7338 30.2157 29.5117H26.8149C26.6201 28.9657 26.1906 28.5361 25.6445 28.3414V25.6445H28.2227V22.4219C28.2227 20.645 26.7769 19.1992 25 19.1992C23.2231 19.1992 21.7773 20.645 21.7773 22.4219V25.6445H24.3555V28.3414C23.8094 28.5361 23.3799 28.9657 23.1851 29.5117H19.7843C19.1954 28.7338 18.2713 28.2227 17.2227 28.2227C15.4458 28.2227 14 29.6684 14 31.4453V34.668H20.4453V31.4453C20.4453 31.2246 20.4226 31.0091 20.3801 30.8008H23.1851C23.4521 31.5494 24.1608 32.0898 25 32.0898C25.8392 32.0898 26.5479 31.5494 26.8149 30.8008H29.6199C29.5774 31.0091 29.5547 31.2246 29.5547 31.4453V34.668H36V31.4453C36 29.6684 34.5542 28.2227 32.7773 28.2227Z" fill="white"/>
</g>
<defs>
<clipPath id="clip0_22:3200">
<rect width="22" height="22" fill="white" transform="translate(14 14)"/>
</clipPath>
</defs>
</svg>
