<svg width="50" height="50" viewBox="0 0 50 50" fill="none" xmlns="http://www.w3.org/2000/svg">
<path d="M25 0L42.6777 7.32233L50 25L42.6777 42.6777L25 50L7.32233 42.6777L0 25L7.32233 7.32233L25 0Z" fill="#83CDF0"/>
<g clip-path="url(#clip0_22:3197)">
<path d="M25 26.9336C27.1325 26.9336 28.8672 25.1989 28.8672 23.0664C28.8672 20.9339 27.1325 19.1992 25 19.1992C22.8675 19.1992 21.1328 20.9339 21.1328 23.0664C21.1328 25.1989 22.8675 26.9336 25 26.9336ZM22.6107 23.2553C22.8625 23.0035 23.2704 23.0035 23.5221 23.2553L24.3555 24.0886L26.4779 21.9661C26.7297 21.7144 27.1376 21.7144 27.3893 21.9661C27.6411 22.2179 27.6411 22.6258 27.3893 22.8776L24.8112 25.4557C24.6853 25.5816 24.5204 25.6445 24.3555 25.6445C24.1906 25.6445 24.0257 25.5816 23.8998 25.4557L22.6108 24.1666C22.3589 23.9149 22.3589 23.507 22.6107 23.2553Z" fill="white"/>
<path d="M16.1654 22.6106C15.9136 22.8624 15.9136 23.2703 16.1654 23.5221L17.4098 24.7664C17.5721 24.9288 17.6357 25.1674 17.5766 25.3889L17.1215 27.089C17.0296 27.4326 17.2335 27.7864 17.5772 27.8783L19.2772 28.334C19.4988 28.3931 19.6731 28.5675 19.7323 28.7896L20.188 30.4891C20.2805 30.8334 20.6361 31.0379 20.9773 30.9448L22.6767 30.4897C22.9014 30.4305 23.1375 30.4935 23.2999 30.6565L24.5442 31.9009C24.6701 32.0268 24.8351 32.0897 24.9999 32.0897C25.1648 32.0897 25.3298 32.0268 25.4556 31.9009L26.7 30.6565C26.8611 30.4947 27.0997 30.4312 27.3225 30.4897L29.0225 30.9448C29.3693 31.0386 29.7199 30.8334 29.8118 30.4891L30.2675 28.789C30.3267 28.5675 30.501 28.3931 30.7232 28.334L32.4226 27.8783C32.7663 27.7864 32.9702 27.4326 32.8783 27.089L32.4232 25.3895C32.3641 25.1673 32.4277 24.9288 32.5901 24.7664L33.8344 23.522C34.0862 23.2703 34.0862 22.8624 33.8344 22.6106L32.5901 21.3662C32.4277 21.2039 32.3641 20.9653 32.4232 20.7437L32.8783 19.0437C32.9702 18.7 32.7663 18.3463 32.4226 18.2544L30.7226 17.7987C30.501 17.7395 30.3267 17.5652 30.2675 17.343L29.8118 15.6436C29.7193 15.2993 29.3687 15.0979 29.0225 15.1879L27.3231 15.643C27.0965 15.6996 26.8611 15.6385 26.6999 15.4762L25.4556 14.1888C25.2038 13.9371 24.7959 13.9371 24.5442 14.1888L23.2998 15.4762C23.1374 15.6385 22.8995 15.7002 22.6773 15.643L20.9772 15.1879C20.6367 15.0992 20.2805 15.2993 20.1879 15.6436L19.7323 17.3436C19.6731 17.5652 19.4987 17.7395 19.2766 17.7987L17.5772 18.2544C17.2335 18.3463 17.0296 18.7 17.1215 19.0437L17.5766 20.7431C17.6357 20.9653 17.5721 21.2039 17.4098 21.3663L16.1654 22.6106ZM25 17.9101C27.8431 17.9101 30.1562 20.2232 30.1562 23.0663C30.1562 25.9094 27.8431 28.2226 25 28.2226C22.1569 28.2226 19.8437 25.9094 19.8437 23.0663C19.8437 20.2232 22.1569 17.9101 25 17.9101Z" fill="white"/>
<path d="M31.4164 29.4825L31.057 30.8226C30.8317 31.6667 30.0651 32.2564 29.1927 32.2564C29.0221 32.2564 28.8515 32.2338 28.686 32.1891L27.3484 31.8309L26.7842 32.3952L28.6545 35.6775C28.7665 35.8707 28.9705 35.9928 29.1933 35.9998C29.2002 35.9998 29.2065 35.9998 29.2128 35.9998C29.4287 35.9998 29.6314 35.8915 29.751 35.7102L31.1609 33.531L33.7164 33.3774C33.9398 33.3642 34.14 33.2364 34.2457 33.0394C34.3514 32.8431 34.3477 32.6051 34.2362 32.4119L32.3939 29.2207L31.4164 29.4825Z" fill="white"/>
<path d="M15.7544 33.0392C15.8601 33.2362 16.0603 33.364 16.2837 33.3772L18.8392 33.5308L20.2491 35.71C20.3687 35.8913 20.5714 35.9996 20.7873 35.9996C20.7936 35.9996 20.7999 35.9996 20.8068 35.9996C21.0296 35.9926 21.2336 35.8705 21.3456 35.6773L23.2159 32.395L22.6517 31.8307L21.311 32.1895C21.1517 32.233 20.9812 32.2563 20.81 32.2563C19.9376 32.2563 19.1697 31.6671 18.9431 30.8237L18.5837 29.4824L17.6064 29.2202L15.7639 32.4117C15.6524 32.6049 15.6487 32.8429 15.7544 33.0392Z" fill="white"/>
</g>
<defs>
<clipPath id="clip0_22:3197">
<rect width="22" height="22" fill="white" transform="translate(14 14)"/>
</clipPath>
</defs>
</svg>
