<svg width="50" height="50" viewBox="0 0 50 50" fill="none" xmlns="http://www.w3.org/2000/svg">
<path d="M25 0L42.6777 7.32233L50 25L42.6777 42.6777L25 50L7.32233 42.6777L0 25L7.32233 7.32233L25 0Z" fill="#83CDF0"/>
<g clip-path="url(#clip0_22:3198)">
<path d="M32.8242 25.7441H31.1228C31.2962 26.2189 31.391 26.7313 31.391 27.2654V33.6957C31.391 33.9184 31.3522 34.1321 31.2817 34.3309H34.0945C35.1452 34.3309 36 33.476 36 32.4254V28.9199C36 27.1688 34.5754 25.7441 32.8242 25.7441Z" fill="white"/>
<path d="M18.6091 27.2654C18.6091 26.7313 18.7038 26.2189 18.8772 25.7441H17.1758C15.4247 25.7441 14 27.1688 14 28.92V32.4254C14 33.4761 14.8548 34.3309 15.9055 34.3309H18.7183C18.6478 34.132 18.6091 33.9184 18.6091 33.6957V27.2654V27.2654Z" fill="white"/>
<path d="M26.9448 24.0898H23.0552C21.3041 24.0898 19.8794 25.5145 19.8794 27.2657V33.696C19.8794 34.0467 20.1638 34.3311 20.5146 34.3311H29.4855C29.8363 34.3311 30.1207 34.0468 30.1207 33.696V27.2657C30.1207 25.5145 28.696 24.0898 26.9448 24.0898Z" fill="white"/>
<path d="M25 15.6689C22.894 15.6689 21.1807 17.3823 21.1807 19.4883C21.1807 20.9168 21.9691 22.1644 23.1335 22.8194C23.6857 23.1301 24.3225 23.3076 25 23.3076C25.6775 23.3076 26.3142 23.1301 26.8665 22.8194C28.0309 22.1644 28.8193 20.9168 28.8193 19.4883C28.8193 17.3823 27.106 15.6689 25 15.6689Z" fill="white"/>
<path d="M18.2934 19.229C16.7183 19.229 15.437 20.5103 15.437 22.0854C15.437 23.6604 16.7183 24.9417 18.2934 24.9417C18.6929 24.9417 19.0733 24.8589 19.4189 24.7102C20.0165 24.4529 20.5091 23.9976 20.814 23.4271C21.028 23.0268 21.1497 22.5701 21.1497 22.0854C21.1497 20.5104 19.8684 19.229 18.2934 19.229Z" fill="white"/>
<path d="M31.7067 19.229C30.1317 19.229 28.8503 20.5103 28.8503 22.0854C28.8503 22.5701 28.9721 23.0268 29.1861 23.4271C29.4909 23.9976 29.9836 24.453 30.5811 24.7102C30.9267 24.8589 31.3072 24.9417 31.7067 24.9417C33.2817 24.9417 34.563 23.6604 34.563 22.0854C34.563 20.5103 33.2817 19.229 31.7067 19.229Z" fill="white"/>
</g>
<defs>
<clipPath id="clip0_22:3198">
<rect width="22" height="22" fill="white" transform="translate(14 14)"/>
</clipPath>
</defs>
</svg>
