<svg width="1022" height="291" viewBox="0 0 1022 291" fill="none" xmlns="http://www.w3.org/2000/svg">
<g clip-path="url(#clip0_22:3041)">
<path d="M7.91479 229.68C122.286 174.171 258.371 174.292 382.712 176.802C496.58 179.109 611.678 185.297 723.407 163.198C787.467 150.548 872.185 151.457 1013.16 59.5703" stroke="#83CDF1" stroke-width="4.5" stroke-linecap="round" stroke-linejoin="round" stroke-dasharray="0.2 10"/>
</g>
<g transform="translate(500, 77) rotate(-10, 188, 79)">
	<path fill="#FFFFFF" stroke="#141C25" d="M164.409,85.754c16.314-3.963,59.995-5.339,66.239,6.407
		c-7.021,11.09-47.566,6.91-66.489,3.292L164.409,85.754z"/>
	<path fill="#141C25" stroke="#141C25" d="M166.832,87.168c15.08-2.671,55.511-3.375,61.36,4.864
		c-6.434,7.702-43.994,4.545-61.535,1.907L166.832,87.168z"/>
	<path fill="#FFFFFF" stroke="#141C25" stroke-width="3" d="M209.205,101.073c2.797-8.29,1.494-16.153,0.492-19.048l-4.455-0.115
		l-0.246,9.524l-0.246,9.524L209.205,101.073z"/>
	
		<rect x="188.643" y="79.659" transform="matrix(0.0258 -0.9997 0.9997 0.0258 96.7425 274.8825)" fill="#FFFFFF" width="1.537" height="16.288"/>
	
		<rect x="188.476" y="86.111" transform="matrix(0.0258 -0.9997 0.9997 0.0258 90.1306 281.0007)" fill="#FFFFFF" width="1.537" height="16.288"/>
	
		<rect x="199.773" y="83.179" transform="matrix(0.0258 -0.9997 0.9997 0.0258 104.2163 289.5913)" fill="#FFFFFF" width="1.844" height="16.288"/>
	<path fill="#FFFFFF" d="M176.957,87.943c0.848,0.022,1.518,0.727,1.496,1.576l-0.064,2.458c-0.022,0.848-0.727,1.518-1.576,1.496
		l-7.681-0.199l0.143-5.53L176.957,87.943z"/>
</g>
<defs>
<clipPath id="clip0_22:3041">
<rect width="1022" height="291" fill="white"/>
</clipPath>
</defs>
</svg>
