<svg width="1082" height="454" viewBox="0 0 1082 454" fill="none" xmlns="http://www.w3.org/2000/svg">
<circle cx="5" cy="398" r="6" fill="#83CDF1" stroke="#83CDF1" />
<path d="M2.29246 400.615C47.5781 326.942 95.4873 251.083 177.386 214.05C268.783 172.664 373.718 192.266 469.018 203.65C583.337 217.348 692.775 235.824 807.886 214.771C920.278 193.967 1009.83 127.942 1079.71 53.385" stroke="#83CDF1" stroke-width="4.5" stroke-linecap="round" stroke-linejoin="round" stroke-dasharray="0.2 10"/>
<g transform="translate(350, 121) rotate(5, 188, 79)">
	<path fill="#FFFFFF" stroke="#141C25" d="M164.409,85.754c16.314-3.963,59.995-5.339,66.239,6.407
		c-7.021,11.09-47.566,6.91-66.489,3.292L164.409,85.754z"/>
	<path fill="#141C25" stroke="#141C25" d="M166.832,87.168c15.08-2.671,55.511-3.375,61.36,4.864
		c-6.434,7.702-43.994,4.545-61.535,1.907L166.832,87.168z"/>
	<path fill="#FFFFFF" stroke="#141C25" stroke-width="3" d="M209.205,101.073c2.797-8.29,1.494-16.153,0.492-19.048l-4.455-0.115
		l-0.246,9.524l-0.246,9.524L209.205,101.073z"/>
	
		<rect x="188.643" y="79.659" transform="matrix(0.0258 -0.9997 0.9997 0.0258 96.7425 274.8825)" fill="#FFFFFF" width="1.537" height="16.288"/>
	
		<rect x="188.476" y="86.111" transform="matrix(0.0258 -0.9997 0.9997 0.0258 90.1306 281.0007)" fill="#FFFFFF" width="1.537" height="16.288"/>
	
		<rect x="199.773" y="83.179" transform="matrix(0.0258 -0.9997 0.9997 0.0258 104.2163 289.5913)" fill="#FFFFFF" width="1.844" height="16.288"/>
	<path fill="#FFFFFF" d="M176.957,87.943c0.848,0.022,1.518,0.727,1.496,1.576l-0.064,2.458c-0.022,0.848-0.727,1.518-1.576,1.496
		l-7.681-0.199l0.143-5.53L176.957,87.943z"/>
</g>
</svg>
