<?xml version="1.0" encoding="utf-8"?>
<!-- Generator: Adobe Illustrator 24.3.0, SVG Export Plug-In . SVG Version: 6.00 Build 0)  -->
<svg version="1.1" id="Layer_1" xmlns="http://www.w3.org/2000/svg" xmlns:xlink="http://www.w3.org/1999/xlink" x="0px" y="0px"
	 width="548.3px" height="207.8px" viewBox="0 0 548.3 207.8" enable-background="new 0 0 548.3 207.8" xml:space="preserve">
<path fill="none" stroke="#84CEF2" stroke-width="4" stroke-linecap="round" stroke-linejoin="round" stroke-miterlimit="10" stroke-dasharray="0,9" d="
	M0,207.8c21.5-39.3,44.3-79.8,85.7-101.1c46.2-23.8,101-16.4,150.6-13c59.5,4.1,116.6,10.8,175.6-3.1C469.5,76.9,514.1,40.4,548.3,0
	"/>
<g>
	<path fill="#FFFFFF" stroke="#141C25" d="M164.409,85.754c16.314-3.963,59.995-5.339,66.239,6.407
		c-7.021,11.09-47.566,6.91-66.489,3.292L164.409,85.754z"/>
	<path fill="#141C25" stroke="#141C25" d="M166.832,87.168c15.08-2.671,55.511-3.375,61.36,4.864
		c-6.434,7.702-43.994,4.545-61.535,1.907L166.832,87.168z"/>
	<path fill="#FFFFFF" stroke="#141C25" stroke-width="3" d="M209.205,101.073c2.797-8.29,1.494-16.153,0.492-19.048l-4.455-0.115
		l-0.246,9.524l-0.246,9.524L209.205,101.073z"/>
	
		<rect x="188.643" y="79.659" transform="matrix(0.0258 -0.9997 0.9997 0.0258 96.7425 274.8825)" fill="#FFFFFF" width="1.537" height="16.288"/>
	
		<rect x="188.476" y="86.111" transform="matrix(0.0258 -0.9997 0.9997 0.0258 90.1306 281.0007)" fill="#FFFFFF" width="1.537" height="16.288"/>
	
		<rect x="199.773" y="83.179" transform="matrix(0.0258 -0.9997 0.9997 0.0258 104.2163 289.5913)" fill="#FFFFFF" width="1.844" height="16.288"/>
	<path fill="#FFFFFF" d="M176.957,87.943c0.848,0.022,1.518,0.727,1.496,1.576l-0.064,2.458c-0.022,0.848-0.727,1.518-1.576,1.496
		l-7.681-0.199l0.143-5.53L176.957,87.943z"/>
</g>
</svg>
