<svg width="38" height="38" viewBox="0 0 38 38" fill="none" xmlns="http://www.w3.org/2000/svg">
<path opacity="0.5" fill-rule="evenodd" clip-rule="evenodd" d="M19 1.08239L6.33034 6.33034L1.08239 19L6.33034 31.6697L19 36.9176L31.6697 31.6697L36.9176 19L31.6697 6.33034L19 1.08239ZM32.435 5.56497L19 0L5.56497 5.56497L0 19L5.56497 32.435L19 38L32.435 32.435L38 19L32.435 5.56497Z" fill="white"/>
<path d="M11.2269 24C11.2269 23.4843 11.2269 22.9881 11.2269 22.5115C11.2269 22.0348 11.2269 21.5105 11.2269 20.9385V17.825C11.2269 17.2486 11.2269 16.7178 11.2269 16.2325C11.2269 15.7471 11.2269 15.2466 11.2269 14.731C11.4739 14.731 11.7577 14.731 12.0784 14.731C12.4034 14.731 12.7566 14.731 13.1379 14.731C13.5236 14.731 13.9309 14.731 14.3599 14.731C15.0662 14.731 15.6534 14.8155 16.1214 14.9845C16.5937 15.1491 16.9469 15.4156 17.1809 15.784C17.4192 16.1523 17.5384 16.6376 17.5384 17.24C17.5384 17.747 17.4387 18.2106 17.2394 18.631C17.0444 19.0513 16.7172 19.3893 16.2579 19.645C15.7986 19.8963 15.1767 20.0241 14.3924 20.0285L14.7629 19.515L16.2254 21.3415C16.4551 21.6231 16.6977 21.9243 16.9534 22.245C17.2091 22.5656 17.4582 22.8798 17.7009 23.1875C17.9436 23.4908 18.1602 23.7616 18.3509 24H16.9729C16.6652 23.61 16.3684 23.233 16.0824 22.869C15.8007 22.505 15.5212 22.1496 15.2439 21.803L13.5799 19.658L14.3014 20.2365H12.1759V19.268H13.9374C14.4791 19.268 14.9254 19.2051 15.2764 19.0795C15.6274 18.9538 15.8896 18.7523 16.0629 18.475C16.2362 18.1933 16.3229 17.8206 16.3229 17.357C16.3229 16.9713 16.2601 16.668 16.1344 16.447C16.0131 16.2216 15.8506 16.057 15.6469 15.953C15.4476 15.849 15.2309 15.7818 14.9969 15.7515C14.7629 15.7211 14.5376 15.706 14.3209 15.706H11.5909L12.3774 14.9C12.3774 15.433 12.3774 15.94 12.3774 16.421C12.3774 16.902 12.3774 17.4263 12.3774 17.994V20.9385C12.3774 21.5105 12.3774 22.0348 12.3774 22.5115C12.3774 22.9881 12.3774 23.4843 12.3774 24H11.2269Z" fill="white"/>
<path d="M23.231 24.143C22.3687 24.143 21.6667 23.9956 21.125 23.701C20.5877 23.402 20.1912 22.9838 19.9355 22.4465C19.6842 21.9048 19.5585 21.2743 19.5585 20.555C19.5585 20.373 19.5585 20.139 19.5585 19.853C19.5585 19.5626 19.5585 19.242 19.5585 18.891C19.5585 18.54 19.5585 18.1868 19.5585 17.8315C19.5585 17.2465 19.5585 16.7135 19.5585 16.2325C19.5585 15.7471 19.5585 15.2466 19.5585 14.731H20.7285C20.7285 15.2466 20.7285 15.7471 20.7285 16.2325C20.7285 16.7135 20.7285 17.2465 20.7285 17.8315V20.438C20.7285 20.997 20.8108 21.478 20.9755 21.881C21.1402 22.284 21.4045 22.5938 21.7685 22.8105C22.1368 23.0228 22.6243 23.129 23.231 23.129C23.842 23.129 24.3273 23.0228 24.687 22.8105C25.051 22.5938 25.3132 22.284 25.4735 21.881C25.6338 21.478 25.714 20.9926 25.714 20.425V17.8315C25.714 17.2465 25.714 16.7135 25.714 16.2325C25.714 15.7471 25.714 15.2466 25.714 14.731H26.884C26.884 15.2466 26.884 15.7471 26.884 16.2325C26.884 16.7135 26.884 17.2465 26.884 17.8315C26.884 18.1868 26.884 18.5421 26.884 18.8975C26.884 19.2485 26.884 19.5691 26.884 19.8595C26.884 20.1498 26.884 20.3816 26.884 20.555C26.884 21.2743 26.7562 21.9048 26.5005 22.4465C26.2448 22.9838 25.8483 23.402 25.311 23.701C24.7737 23.9956 24.0803 24.143 23.231 24.143Z" fill="white"/>
</svg>
