<svg width="50" height="50" viewBox="0 0 50 50" fill="none" xmlns="http://www.w3.org/2000/svg">
<path d="M25 0L42.6777 7.32233L50 25L42.6777 42.6777L25 50L7.32233 42.6777L0 25L7.32233 7.32233L25 0Z" fill="#83CDF0"/>
<path d="M23.2637 21.3143C23.2409 21.3827 23.1971 21.4422 23.1386 21.4844C23.08 21.5266 23.0097 21.5493 22.9376 21.5493H18.1251V32.2056C18.1255 32.5776 18.0045 32.9397 17.7805 33.2368H33.5938C33.8672 33.2365 34.1294 33.1278 34.3227 32.9344C34.516 32.7411 34.6248 32.479 34.6251 32.2056V19.4868H23.8728L23.2637 21.3143Z" fill="white"/>
<path d="M22.6897 20.8618L22.9189 20.1743H16.75V33.1776C16.9509 33.1063 17.1248 32.9746 17.2479 32.8005C17.371 32.6265 17.4372 32.4186 17.4375 32.2055V21.2055C17.4375 21.1143 17.4737 21.0269 17.5382 20.9624C17.6026 20.8979 17.6901 20.8617 17.7813 20.8617L22.6897 20.8618Z" fill="white"/>
<path d="M23.2989 19.0342C23.3217 18.9658 23.3655 18.9063 23.424 18.8641C23.4825 18.8219 23.5529 18.7992 23.625 18.7992H31.875V18.1117H23.9688C23.9049 18.1117 23.8423 18.0939 23.788 18.0603C23.7337 18.0268 23.6899 17.9788 23.6613 17.9217L23.0688 16.7368H18.6812L18.0887 17.9216C18.0601 17.9786 18.0163 18.0267 17.962 18.0602C17.9077 18.0938 17.8451 18.1116 17.7812 18.1116H15.375V32.2053C15.3753 32.4185 15.4415 32.6264 15.5646 32.8005C15.6876 32.9745 15.8616 33.1062 16.0625 33.1775V19.8304C16.0625 19.7393 16.0987 19.6518 16.1632 19.5874C16.2276 19.5229 16.3151 19.4867 16.4062 19.4867H23.148L23.2989 19.0342Z" fill="white"/>
</svg>
