<svg width="71" height="21" viewBox="0 0 71 21" fill="none" xmlns="http://www.w3.org/2000/svg">
<g clip-path="url(#clip0_22:94)">
<path d="M0.163543 5.63444C17.4099 1.02413 63.8437 -1.61541 70.8103 10.5678C63.6475 22.4118 20.396 19.1229 0.163544 15.8307L0.163543 5.63444Z" fill="white" stroke="#141C25"/>
<path d="M2.78009 7.05278C18.7508 3.83816 61.744 1.99985 68.1938 10.4968C61.5608 18.7675 21.5146 16.4769 2.78009 14.1734L2.78009 7.05278Z" fill="#141C25" stroke="#141C25"/>
<path d="M48.2426 20.5154C50.9899 11.7277 49.3873 3.49892 48.2426 0.484611L43.5001 0.484611L43.5001 20.5154L48.2426 20.5154Z" fill="white" stroke="#141C25" stroke-width="3"/>
<path d="M18.1523 6.30002L18.1523 7.91541L35.4869 7.9154L35.4869 6.30002L18.1523 6.30002Z" fill="white"/>
<path d="M18.1523 13.0846L18.1523 14.7L35.4869 14.7L35.4869 13.0846L18.1523 13.0846Z" fill="white"/>
<path d="M30.2538 9.53078L30.2538 11.4692L47.5885 11.4692L47.5885 9.53078L30.2538 9.53078Z" fill="white"/>
<path d="M13.5733 7.59233C14.0071 7.59233 14.423 7.76252 14.7297 8.06547C15.0364 8.36841 15.2087 8.77929 15.2087 9.20772L15.2087 11.7923C15.2087 12.2208 15.0364 12.6316 14.7297 12.9346C14.423 13.2375 14.0071 13.4077 13.5733 13.4077L5.39664 13.4077L5.39664 7.59233L13.5733 7.59233Z" fill="white"/>
</g>
<defs>
<clipPath id="clip0_22:94">
<rect width="21" height="71" fill="white" transform="translate(0 21) rotate(-90)"/>
</clipPath>
</defs>
</svg>
