<svg width="38" height="38" viewBox="0 0 38 38" fill="none" xmlns="http://www.w3.org/2000/svg">
<path opacity="0.5" fill-rule="evenodd" clip-rule="evenodd" d="M19 1.08239L6.33034 6.33034L1.08239 19L6.33034 31.6697L19 36.9176L31.6697 31.6697L36.9176 19L31.6697 6.33034L19 1.08239ZM32.435 5.56497L19 0L5.56497 5.56497L0 19L5.56497 32.435L19 38L32.435 32.435L38 19L32.435 5.56497Z" fill="white"/>
<path d="M11.4427 24C11.4427 23.4843 11.4427 22.9881 11.4427 22.5115C11.4427 22.0348 11.4427 21.5105 11.4427 20.9385V17.825C11.4427 17.2486 11.4427 16.7178 11.4427 16.2325C11.4427 15.7471 11.4427 15.2466 11.4427 14.731H17.2017V15.7385C16.7684 15.7385 16.3026 15.7385 15.8042 15.7385C15.3102 15.7385 14.7252 15.7385 14.0492 15.7385H11.9432L12.5932 14.9C12.5932 15.42 12.5932 15.9226 12.5932 16.408C12.5932 16.889 12.5932 17.4176 12.5932 17.994V20.763C12.5932 21.3306 12.5932 21.855 12.5932 22.336C12.5932 22.8126 12.5932 23.3088 12.5932 23.8245L12.0082 22.9925H14.1532C14.7209 22.9925 15.2561 22.9925 15.7587 22.9925C16.2657 22.9925 16.7511 22.9925 17.2147 22.9925V24H11.4427ZM12.3397 19.7945V18.813H14.1402C14.7382 18.813 15.2539 18.813 15.6872 18.813C16.1206 18.813 16.5387 18.813 16.9417 18.813V19.7945C16.5171 19.7945 16.0881 19.7945 15.6547 19.7945C15.2257 19.7945 14.7187 19.7945 14.1337 19.7945H12.3397Z" fill="white"/>
<path d="M19.1615 24C19.1615 23.4843 19.1615 22.9881 19.1615 22.5115C19.1615 22.0348 19.1615 21.5105 19.1615 20.9385V17.8315C19.1615 17.2465 19.1615 16.7135 19.1615 16.2325C19.1615 15.7471 19.1615 15.2466 19.1615 14.731H20.221C20.7757 15.511 21.3087 16.2628 21.82 16.9865C22.3313 17.7101 22.8361 18.423 23.3345 19.125L25.343 21.959H25.4405V17.8315C25.4405 17.2465 25.4405 16.7135 25.4405 16.2325C25.4405 15.7471 25.4405 15.2466 25.4405 14.731H26.5585C26.5585 15.2466 26.5585 15.7471 26.5585 16.2325C26.5585 16.7135 26.5585 17.2465 26.5585 17.8315V20.9385C26.5585 21.5105 26.5585 22.0348 26.5585 22.5115C26.5585 22.9881 26.5585 23.4843 26.5585 24H25.512C25.0527 23.35 24.5695 22.6675 24.0625 21.9525C23.5555 21.2331 22.9987 20.4445 22.392 19.5865L20.3705 16.733H20.2795V20.9385C20.2795 21.5105 20.2795 22.0348 20.2795 22.5115C20.2795 22.9881 20.2795 23.4843 20.2795 24H19.1615Z" fill="white"/>
</svg>
