<svg width="292" height="36" viewBox="0 0 292 36" fill="none" xmlns="http://www.w3.org/2000/svg">
<g clip-path="url(#clip0_22:16)">
<path d="M23.379 3.88858C21.5379 4.11396 19.0472 5.01264 18.0514 6.66022L17.8208 7.10956L17.5915 7.56033L17.4003 8.12236L17.2076 9.05813V11.3034L17.5915 12.8012L17.9741 14.6727L18.5493 15.9837L18.9333 16.5457L19.3158 16.9194L19.5071 17.2946L19.6998 17.6683L20.0823 18.2304L21.0401 19.3544L21.9044 20.0577L22.6198 20.7567L22.4212 21.2545L29.1372 24.6695L30.6074 29.3255L28.8554 29.5965L28.7357 29.8676L27.029 30.2955L27.5049 29.17L17.5769 25.1345L17.2587 26.337L16.901 24.8635L16.5447 24.631L13.248 21.9207L12.6129 21.0277L11.1442 18.6997L8.39354 12.9938L7.76866 12.0323L7.80808 10.6743L8.39208 8.50038L16.6323 5.13104L19.5056 2.88434L24.6798 1.94714L28.5123 3.07121L30.7023 4.75588L31.39 6.0611L31.7346 6.67164V6.86564L31.6966 6.88418V6.77292L30.6994 5.87423C28.7824 4.26374 26.061 3.55193 23.379 3.88858Z" fill="white"/>
<path fill-rule="evenodd" clip-rule="evenodd" d="M58.5986 18.4929C58.5226 17.0322 58.4453 15.3547 58.4453 14.0366H58.4073C58.0233 15.2348 57.6028 16.5087 57.0656 17.9309L55.188 22.9107H54.1908L52.4666 18.0065C51.976 16.5472 51.5468 15.2348 51.246 13.9995C51.208 15.2719 51.1307 16.9951 51.0547 18.53L50.7481 22.9521H49.4458L50.1758 12.6543H51.9395L53.728 17.6313C54.1499 18.9052 54.5339 20.0278 54.8026 21.1133H54.8405C55.1092 20.0649 55.4917 18.9423 55.9516 17.6313L57.8291 12.6515H59.5534L60.206 22.9492H58.8672L58.5986 18.4929Z" fill="white"/>
<path fill-rule="evenodd" clip-rule="evenodd" d="M63.1217 17.8937C63.1217 20.1033 64.3481 22.0505 66.4943 22.0505C68.6405 22.0505 69.8669 20.1033 69.8669 17.781C69.8669 15.7212 68.7558 13.6243 66.4943 13.6243C64.2327 13.6243 63.1217 15.647 63.1217 17.8937ZM71.2845 17.7511C71.2845 21.3087 69.0624 23.1802 66.3789 23.1802C63.5816 23.1802 61.6266 21.0833 61.6266 17.975C61.6266 14.7184 63.6969 12.5829 66.5322 12.5829C69.407 12.5387 71.2845 14.7112 71.2845 17.7439V17.7511Z" fill="white"/>
<path fill-rule="evenodd" clip-rule="evenodd" d="M74.3899 17.781C74.754 17.864 75.1272 17.9018 75.501 17.8937C77.1493 17.8937 78.145 17.1448 78.145 15.6841C78.145 14.3361 77.1493 13.6628 75.6543 13.6628C75.0411 13.6628 74.6196 13.6999 74.3899 13.774V17.781ZM73.0482 12.8383C73.9099 12.704 74.7817 12.6415 75.6543 12.6514C76.996 12.6514 77.9903 12.951 78.6049 13.5073C79.1802 13.9937 79.5247 14.7426 79.5247 15.6784C79.5483 16.4872 79.2613 17.2754 78.7203 17.888C77.9903 18.6369 76.8033 19.0106 75.5083 19.0106C75.1363 19.0255 74.7637 19.0007 74.3972 18.9365V23.0547H73.0175V12.8383H73.0482Z" fill="white"/>
<path fill-rule="evenodd" clip-rule="evenodd" d="M88.5694 22.6809C88.0716 22.9434 87.0744 23.1674 85.7721 23.1674C82.8214 23.1674 80.5599 21.3329 80.5599 17.9621C80.5599 14.7426 82.8214 12.5701 86.0787 12.5701C87.381 12.5701 88.2249 12.8325 88.5694 13.0194L88.2249 14.1064C87.5454 13.8286 86.8152 13.6884 86.0787 13.6941C83.6259 13.6941 81.9775 15.229 81.9775 17.9251C81.9775 20.4713 83.4726 22.0818 86.0407 22.0818C86.7999 22.0794 87.5525 21.9441 88.2628 21.6824L88.5694 22.6809Z" fill="white"/>
<path fill-rule="evenodd" clip-rule="evenodd" d="M91.5975 12.6956V17.2603H92.018L95.6212 12.6956H97.2696L93.2838 17.4514C95.008 17.6768 95.6986 18.7253 96.2344 20.1104C96.6184 21.1588 96.9236 22.0946 97.3849 23.0304H95.8899C95.5059 22.3171 95.2373 21.4213 94.9307 20.5968C94.4708 19.2488 93.7816 18.3144 91.98 18.3144H91.5581V23.0232H90.2178V12.7269H91.5975V12.6956Z" fill="white"/>
<path fill-rule="evenodd" clip-rule="evenodd" d="M99.991 12.6956V17.032C99.991 18.6796 99.9516 20.0276 99.8757 21.4142H99.9137C100.502 20.2446 101.154 19.1069 101.869 18.0063L105.279 12.6956H106.621V22.9933H105.357V18.6055C105.357 16.9208 105.357 15.7225 105.47 14.4116H105.432C104.847 15.6067 104.194 16.7691 103.478 17.8936L100.182 23.029H98.7223V12.7269H99.9881L99.991 12.6956Z" fill="white"/>
<path fill-rule="evenodd" clip-rule="evenodd" d="M114.439 18.1932H110.338V21.902H114.937V23.0247H108.996V12.6956H114.67V13.8196H110.338V17.0777H114.439V18.1932Z" fill="white"/>
<path fill-rule="evenodd" clip-rule="evenodd" d="M127.585 12.6956V23.0232H126.205V13.8125H121.338V23.0232H119.958V12.6956H127.585Z" fill="white"/>
<path fill-rule="evenodd" clip-rule="evenodd" d="M131.302 17.781C131.666 17.864 132.04 17.9018 132.413 17.8937C134.062 17.8937 135.057 17.1448 135.057 15.6841C135.057 14.3361 134.062 13.6628 132.567 13.6628C131.953 13.6628 131.493 13.6999 131.302 13.774V17.781ZM129.922 12.8383C130.784 12.704 131.656 12.6415 132.529 12.6514C133.87 12.6514 134.865 12.951 135.479 13.5073C136.054 13.9937 136.399 14.7426 136.399 15.6784C136.423 16.4872 136.136 17.2754 135.595 17.888C134.865 18.6369 133.678 19.0106 132.375 19.0106C132.003 19.0255 131.631 19.0007 131.264 18.9365V23.0547H129.885V12.8383H129.922Z" fill="white"/>
<path fill-rule="evenodd" clip-rule="evenodd" d="M138.967 17.8937C138.967 20.1033 140.156 22.0505 142.34 22.0505C144.486 22.0505 145.712 20.1033 145.712 17.781C145.712 15.7212 144.601 13.6243 142.34 13.6243C140.078 13.6243 138.967 15.647 138.967 17.8937ZM147.13 17.7511C147.13 21.3087 144.908 23.1802 142.224 23.1802C139.427 23.1802 137.472 21.0833 137.472 17.975C137.472 14.7184 139.542 12.5829 142.378 12.5829C145.252 12.5387 147.13 14.7112 147.13 17.7439V17.7511Z" fill="white"/>
<path fill-rule="evenodd" clip-rule="evenodd" d="M154.335 18.1932H150.234V21.902H154.794V23.0247H148.892V12.6956H154.564V13.8196H150.234V17.0777H154.334L154.335 18.1932Z" fill="white"/>
<path fill-rule="evenodd" clip-rule="evenodd" d="M157.9 12.6956V17.2603H158.321L161.924 12.6956H163.573L159.587 17.4514C161.311 17.6768 162 18.7253 162.537 20.1104C162.92 21.1588 163.227 22.0946 163.686 23.0304H162.193C161.809 22.3171 161.54 21.4213 161.234 20.5968C160.774 19.2488 160.085 18.3144 158.283 18.3144H157.861V23.0232H156.521V12.7269H157.9V12.6956Z" fill="white"/>
<path fill-rule="evenodd" clip-rule="evenodd" d="M167.481 13.8496H164.262V12.6956H172.042V13.8567H168.83V23.0232H167.488L167.481 13.8496Z" fill="white"/>
<path fill-rule="evenodd" clip-rule="evenodd" d="M182.428 12.6956V22.9933H181.049V12.6956H182.428ZM174.571 21.9819C174.937 22.0503 175.311 22.0756 175.683 22.0575C177.216 22.0575 178.481 21.3086 178.481 19.7352C178.481 18.1262 177.063 17.527 175.644 17.527C175.285 17.5214 174.926 17.5463 174.571 17.6012V21.9819ZM174.571 12.6956V16.547C174.917 16.51 175.491 16.4729 175.837 16.4729C178.027 16.4729 179.898 17.4086 179.898 19.6924C179.898 20.6282 179.592 21.34 179.094 21.865C178.25 22.7636 176.758 23.0632 175.337 23.0632C174.379 23.0632 173.69 22.9876 173.23 22.9505V12.6956H174.571Z" fill="white"/>
<path fill-rule="evenodd" clip-rule="evenodd" d="M189.441 12.6956V17.032C189.441 18.6796 189.441 20.0276 189.327 21.4142H189.365C189.952 20.2443 190.605 19.1066 191.32 18.0063L194.73 12.6956H196.11V22.9933H194.806V18.6055C194.806 16.9208 194.806 15.7225 194.922 14.4116H194.884C194.298 15.6064 193.645 16.7688 192.929 17.8936L189.634 23.029H188.174V12.7269H189.438L189.441 12.6956Z" fill="white"/>
<path fill-rule="evenodd" clip-rule="evenodd" d="M203.737 13.8496H200.525V12.6956H208.342V13.8567H205.13V23.0232H203.75L203.737 13.8496Z" fill="white"/>
<path fill-rule="evenodd" clip-rule="evenodd" d="M214.928 18.1932H210.824V21.902H215.423V23.0247H209.482V12.6956H215.204V13.8196H210.824V17.0777H214.925L214.928 18.1932Z" fill="white"/>
<path fill-rule="evenodd" clip-rule="evenodd" d="M222.942 23.0234L221.6 20.741C221.064 19.8851 220.724 19.2803 220.374 18.7183H220.336C220.029 19.3174 219.761 19.8423 219.187 20.7781L217.921 23.0248H216.388L219.607 17.8196L216.541 12.7271H218.114L219.493 15.162C219.876 15.8353 220.183 16.3218 220.489 16.8838H220.527C220.834 16.2847 221.102 15.7983 221.486 15.162L222.946 12.7271H224.517L221.305 17.7454L224.602 23.0234H222.942Z" fill="white"/>
<path fill-rule="evenodd" clip-rule="evenodd" d="M227.421 12.6956V17.032H232.52V12.6956H233.899V23.0232H232.52V18.1932H227.421V23.0232H226.081V12.6956H227.421Z" fill="white"/>
<path fill-rule="evenodd" clip-rule="evenodd" d="M237.081 17.8937C237.081 20.1033 238.307 22.0505 240.453 22.0505C242.643 22.0505 243.826 20.1033 243.826 17.781C243.826 15.7212 242.713 13.6243 240.453 13.6243C238.193 13.6243 237.081 15.647 237.081 17.8937ZM245.243 17.7511C245.243 21.3087 243.02 23.1802 240.338 23.1802C237.541 23.1802 235.586 21.0833 235.586 17.975C235.586 14.7184 237.654 12.5829 240.491 12.5829C243.404 12.5387 245.243 14.7112 245.243 17.7439V17.7511Z" fill="white"/>
<path fill-rule="evenodd" clip-rule="evenodd" d="M253.866 12.6956V22.9933H252.487V13.8125H248.999V16.9208C248.999 19.1675 248.923 21.6381 247.428 22.6124C246.951 22.9222 246.394 23.0911 245.822 23.0989L245.676 22.0504C246.088 21.9554 246.469 21.7623 246.787 21.4884C247.629 20.6653 247.707 18.6796 247.707 17.032V12.6956H253.866Z" fill="white"/>
<path fill-rule="evenodd" clip-rule="evenodd" d="M257.048 17.8937C257.048 20.1033 258.274 22.0505 260.42 22.0505C262.566 22.0505 263.793 20.1033 263.793 17.781C263.793 15.7212 262.682 13.6243 260.42 13.6243C258.159 13.6243 257.048 15.647 257.048 17.8937ZM265.21 17.7511C265.21 21.3087 263.02 23.1802 260.305 23.1802C257.545 23.1802 255.591 21.0833 255.591 17.975C255.591 14.7184 257.661 12.5829 260.496 12.5829C263.333 12.5387 265.21 14.7112 265.21 17.7439V17.7511Z" fill="white"/>
<path fill-rule="evenodd" clip-rule="evenodd" d="M272.569 12.6956V13.8196H268.314V23.0232H266.974V12.6956H272.569Z" fill="white"/>
<path fill-rule="evenodd" clip-rule="evenodd" d="M275.022 12.6956V17.032C275.022 18.6796 274.984 20.0276 274.906 21.4142H274.946C275.533 20.2443 276.185 19.1066 276.899 18.0063L280.311 12.6956H281.652V22.9933H280.387V18.6055C280.387 16.9208 280.387 15.7225 280.503 14.4116H280.466C279.967 15.5342 279.24 16.7325 278.511 17.8936L275.214 23.029H273.754V12.7269H275.019L275.022 12.6956Z" fill="white"/>
<path fill-rule="evenodd" clip-rule="evenodd" d="M285.293 12.6956V17.032C285.293 18.6796 285.255 20.0276 285.177 21.4142H285.217C285.804 20.2443 286.456 19.1066 287.17 18.0063L290.582 12.6956H291.923V22.9933H290.658V18.6055C290.658 16.9208 290.658 15.7225 290.774 14.4116H290.736C290.236 15.5342 289.509 16.7325 288.781 17.8936L285.484 23.029H284.024V12.7269H285.288L285.293 12.6956Z" fill="white"/>
<path fill-rule="evenodd" clip-rule="evenodd" d="M31.7329 6.70447C31.7329 6.78007 31.618 6.81716 31.7329 6.89276H31.81V6.81716C31.81 6.81716 31.81 6.85425 31.7722 6.81716C31.7344 6.78007 31.81 6.70447 31.7329 6.70447Z" fill="#83CDF2"/>
<path fill-rule="evenodd" clip-rule="evenodd" d="M19.6998 18.5299C19.7757 18.5684 19.6224 18.5684 19.6604 18.6426H19.6224C19.6082 18.6576 19.5974 18.6755 19.5909 18.6949C19.5843 18.7143 19.5821 18.7349 19.5844 18.7553C19.7526 18.7743 19.9119 18.8391 20.0443 18.9422C20.5422 19.0548 20.8868 19.5784 21.424 19.6554C20.8437 19.0789 20.3188 18.4514 19.856 17.781C19.8537 17.8014 19.8559 17.8219 19.8624 17.8414C19.869 17.8608 19.8797 17.8787 19.894 17.8937C19.7603 18.0796 19.6922 18.3029 19.6998 18.5299V18.5299Z" fill="#83CDF2"/>
<path fill-rule="evenodd" clip-rule="evenodd" d="M31.7711 6.9597L31.8482 6.99678V6.92261H31.7711V6.9597Z" fill="#83CDF2"/>
<path fill-rule="evenodd" clip-rule="evenodd" d="M16.79 24.0347C16.79 24.0718 16.8294 24.0718 16.8674 24.1103C16.8623 24.1101 16.8573 24.1109 16.8526 24.1127C16.8479 24.1145 16.8436 24.1172 16.8401 24.1207C16.8365 24.1242 16.8337 24.1283 16.8319 24.1329C16.83 24.1375 16.8292 24.1424 16.8294 24.1474C16.825 24.1074 16.7476 24.0718 16.79 24.0347ZM18.1697 21.3386C18.0938 21.3757 18.0558 21.4813 17.9405 21.3757C18.0164 21.3696 18.0916 21.3572 18.1653 21.3386H18.1697ZM18.1697 21.0391C18.2091 21.0391 18.2471 21.0762 18.2091 21.1518C18.1653 20.9692 18.0894 21.2259 18.1653 21.0391H18.1697ZM16.79 24.2215C16.7813 24.2468 16.7664 24.2697 16.7466 24.2882C16.7269 24.3066 16.7029 24.3202 16.6766 24.3276C16.6504 24.335 16.6227 24.3361 16.5959 24.3308C16.5691 24.3255 16.544 24.314 16.5228 24.2971C16.5228 24.2215 16.5987 24.2971 16.6367 24.2971C16.5608 24.2215 16.6761 24.2215 16.7141 24.1474C16.6932 24.127 16.6798 24.1004 16.6761 24.0718C16.7141 24.1103 16.7141 24.1103 16.7141 24.1474C16.79 24.2215 16.9433 24.1474 17.0586 24.2215C17.0207 24.0718 17.174 24.2601 17.174 24.1103C17.1297 23.951 17.1038 23.7873 17.0966 23.6224C17.2499 23.4798 17.174 23.136 17.2119 22.9491C17.2893 22.8735 17.4426 22.9491 17.5185 22.8735C17.5185 22.7623 17.3273 22.912 17.4426 22.7623C17.4426 22.7237 17.6339 22.4627 17.4032 22.3871L17.5959 22.4627C17.5932 22.4335 17.5791 22.4064 17.5565 22.3871C17.608 22.3831 17.6595 22.3962 17.7025 22.4242C17.8485 22.35 17.7025 22.2002 17.7419 22.0875L17.6266 22.1246C17.5886 21.9007 17.7025 21.788 17.7025 21.6011H17.7799L17.7419 21.4884C17.8178 21.5255 17.9332 21.4513 17.8558 21.3757L18.0485 21.7138C17.9711 21.788 17.9332 21.6011 17.8178 21.6382C17.7998 21.6552 17.7855 21.6756 17.7757 21.6982C17.7659 21.7207 17.7609 21.7449 17.7609 21.7694C17.7609 21.7939 17.7659 21.8182 17.7757 21.8407C17.7855 21.8632 17.7998 21.8836 17.8178 21.9007C17.8201 21.8803 17.818 21.8597 17.8114 21.8403C17.8049 21.8208 17.7941 21.803 17.7799 21.788C17.9259 21.788 17.8952 21.9007 18.0091 21.9306C18.0091 21.9306 18.0485 21.8564 18.0091 21.8564C18.0437 21.8899 18.0663 21.9335 18.0734 21.9805C18.0805 22.0276 18.0718 22.0757 18.0485 22.1175C18.0091 22.0433 17.9332 22.156 17.9025 22.1175C18.0164 22.156 18.0485 22.2673 17.9784 22.417C17.8324 22.4926 18.0164 22.7166 17.9405 22.8664C17.8319 22.794 17.7509 22.6888 17.7098 22.5668C17.6339 22.6424 17.7098 22.6795 17.6339 22.7551C17.7098 22.8293 17.8631 22.9049 17.9025 23.0547H17.8251C17.8251 23.2045 17.9711 23.2045 17.9405 23.3913C17.8251 23.6538 17.7945 23.9148 17.7098 24.1402H17.6339C17.8251 24.29 17.6339 24.514 17.6718 24.7023C17.6163 24.8474 17.5776 24.9981 17.5565 25.1516C20.5845 27.0602 23.9951 28.4083 27.4845 29.3069C27.8357 28.5645 28.0436 27.7651 28.0977 26.949C28.251 25.9376 27.9064 24.7764 27.4465 23.8407V23.8036C25.569 22.8293 23.9966 21.9677 22.5409 20.808C22.31 20.8155 22.0789 20.8026 21.8504 20.7695C20.8926 20.4699 19.9728 19.7595 19.3596 19.0106C19.1304 19.3102 18.8238 19.6097 18.4398 19.7239C18.4018 19.7995 18.3244 19.7239 18.2865 19.7239C18.2485 19.7239 18.1711 19.6868 18.1405 19.7239C18.1321 19.7919 18.1059 19.8568 18.0646 19.9122C17.7959 19.9122 17.5273 19.7239 17.2586 19.8365C17.2586 19.7624 17.1827 19.8366 17.1827 19.7995C17.1053 19.8366 16.9915 19.7995 16.9141 19.7995C16.9141 19.7624 16.8761 19.7624 16.9141 19.6497C16.8691 19.6618 16.822 19.6647 16.7758 19.6583C16.7296 19.6519 16.6853 19.6364 16.6454 19.6126C16.6071 19.6081 16.5716 19.5906 16.5449 19.5633C16.5183 19.536 16.5022 19.5005 16.4994 19.4628C16.4235 19.4999 16.3856 19.4628 16.3856 19.4243L16.1549 19.537C15.7329 19.9492 14.9285 19.9122 14.6598 20.5484C14.6219 20.5855 14.546 20.3986 14.4686 20.5484C14.3226 21.0719 13.7795 21.5968 13.2422 21.9335C14.3472 23.0408 15.5676 24.0324 16.8834 24.892C16.9214 24.8164 16.9214 24.7051 16.9593 24.6295C16.7476 24.5211 16.9783 24.1845 16.79 24.2215Z" fill="#83CDF2"/>
<path fill-rule="evenodd" clip-rule="evenodd" d="M18.0135 16.7706C18.0523 16.7314 18.0523 16.7706 18.0135 16.7706V16.7706Z" fill="#83CDF2"/>
<path fill-rule="evenodd" clip-rule="evenodd" d="M26.061 3.17813C26.066 3.17793 26.071 3.17875 26.0757 3.18054C26.0804 3.18234 26.0847 3.18506 26.0882 3.18855C26.0918 3.19203 26.0945 3.1962 26.0964 3.20079C26.0982 3.20538 26.099 3.21029 26.0988 3.21522C26.1759 3.17813 26.1338 3.17813 26.061 3.17813Z" fill="#83CDF2"/>
<path fill-rule="evenodd" clip-rule="evenodd" d="M17.5914 7.56026C17.5914 7.52317 17.5914 7.48608 17.5521 7.48608C17.5733 7.50582 17.5871 7.53193 17.5914 7.56026Z" fill="#83CDF2"/>
<path fill-rule="evenodd" clip-rule="evenodd" d="M10.731 12.0152H10.693C10.693 11.9781 10.731 11.9396 10.769 11.9781L10.731 12.0152ZM11.388 12.2777C11.35 12.2777 11.2727 12.2777 11.2727 12.2021C11.2668 12.2392 11.4595 12.2021 11.388 12.2777ZM12.6918 13.1336C12.6524 13.1336 12.6524 13.0965 12.6524 13.0594C12.6524 13.0594 12.7239 13.1008 12.6859 13.1379L12.6918 13.1336ZM12.883 12.9909L12.8057 13.0294C12.7619 12.951 12.7998 12.951 12.8772 12.9881L12.883 12.9909ZM13.613 13.6656H13.3064C13.3371 13.5872 13.5284 13.6257 13.6057 13.6628L13.613 13.6656ZM13.9576 14.0779V14.0023C13.9956 14.0023 14.0335 14.0023 14.0335 14.0394C13.9883 13.9994 13.9883 14.0365 13.9503 14.075L13.9576 14.0779ZM16.06 16.3203C16.06 16.2461 16.0206 16.1335 16.1359 16.0964C16.0965 16.1705 16.0965 16.2461 16.06 16.3203ZM23.4943 2.87863C23.4184 2.91572 23.4184 2.80303 23.4184 2.80303C23.4929 2.80303 23.379 2.91572 23.4929 2.87863H23.4943ZM16.206 17.781C16.168 17.781 16.352 17.8181 16.2819 17.8181L16.206 17.781ZM16.244 17.781C16.244 17.7439 16.168 17.781 16.244 17.781C16.2878 17.7439 16.206 17.7439 16.2498 17.781H16.244ZM16.3593 16.3959C16.3199 16.433 16.244 16.433 16.244 16.3959C16.4031 16.4701 16.2498 16.2461 16.3651 16.3959H16.3593ZM18.396 17.6313H18.4734C18.5493 17.5942 18.3186 17.6683 18.396 17.6313ZM16.825 17.4886H16.863C16.863 17.4515 16.825 17.3759 16.901 17.346V17.3089C17.047 17.122 17.2076 16.8966 17.4382 16.8595V16.8966C17.4382 16.8224 17.4762 16.8966 17.5142 16.8966C17.5432 16.9011 17.5702 16.914 17.5915 16.9337V16.7326C17.5915 16.8082 17.7448 16.8082 17.8587 16.8082C17.8587 16.7326 17.8587 16.6955 17.8208 16.7326C17.8587 16.7326 17.8587 16.7326 17.9361 16.7697C18.0303 16.7005 18.12 16.6257 18.2047 16.5457H18.2807C18.3186 16.5086 18.358 16.5457 18.358 16.5828C18.434 16.5086 18.434 16.6199 18.5493 16.5828C18.6155 16.6456 18.6655 16.7228 18.6953 16.8082L18.6573 16.8453C18.7727 16.8453 18.6953 16.958 18.7727 16.958C18.6573 16.995 18.8486 16.995 18.7333 17.0692C18.7333 17.1077 18.7333 17.1448 18.6179 17.1077C18.6953 17.1077 18.6179 17.1448 18.6573 17.1448V17.1819L18.6179 17.219V17.2604L18.542 17.4472C18.542 17.5214 18.4661 17.4843 18.4661 17.4472C18.504 17.4472 18.504 17.3716 18.504 17.3716C18.58 17.2604 18.4661 17.3716 18.542 17.2604C18.6179 17.2604 18.396 17.2604 18.4661 17.2219C18.58 17.2219 18.3887 17.1477 18.4661 17.1477H18.4267C18.4267 17.0721 18.6573 17.035 18.542 16.9223C18.6179 16.6613 18.2734 16.6983 18.1974 16.6227C18.1595 16.6983 18.0821 17.1477 17.8135 16.8852C17.6996 16.7725 17.6222 17.035 17.5069 16.9223C17.3609 16.8852 17.2776 17.1477 17.1623 17.1477C17.1243 17.2604 16.8937 17.2604 16.9331 17.4472C16.9133 17.6088 16.9133 17.7721 16.9331 17.9337C17.047 18.0093 17.009 18.1961 17.2003 18.2332L17.3156 18.3088C17.5448 18.3088 17.6602 18.3088 17.8135 18.4201C17.9595 18.4586 18.0821 18.2703 18.2734 18.3459V18.3088C18.3113 18.3088 18.3113 18.2703 18.3113 18.2332C18.3113 18.1591 18.4661 18.1961 18.3887 18.0906C18.4267 17.9779 18.504 17.9037 18.4661 17.791H18.396C18.434 17.791 18.396 17.7539 18.434 17.7539C18.358 17.7168 18.396 17.7168 18.396 17.6783H18.434C18.4734 17.6412 18.396 17.6783 18.396 17.6783C18.434 17.6412 18.358 17.6783 18.396 17.6412H18.4734C18.4734 17.7168 18.434 17.791 18.5113 17.8666H18.4734C18.5062 17.9012 18.5274 17.9447 18.5342 17.9913C18.541 18.038 18.533 18.0856 18.5113 18.1277L18.5493 18.1662C18.4734 18.1662 18.5493 18.2404 18.4734 18.2033H18.5113C18.4734 18.2774 18.5113 18.5028 18.358 18.5399C18.358 18.577 18.2427 18.5399 18.2427 18.6155V18.577L18.1274 18.6897C18.0894 18.7268 18.0135 18.6897 18.0135 18.7653V18.7268C17.9741 18.7653 17.8981 18.8395 17.8208 18.7268C17.8208 18.6897 17.7828 18.7268 17.7828 18.7268V18.6868C17.7069 18.7625 17.7069 18.5442 17.5915 18.6868V18.6498C17.5521 18.7625 17.5521 18.6498 17.5142 18.7239V18.6868C17.3682 18.7995 17.4003 18.5742 17.247 18.6127V18.5742L17.1316 18.5C17.0163 18.4244 17.0922 18.2746 16.9404 18.2004C16.7856 18.1633 16.9404 18.0136 16.7856 17.9379V17.6013H16.825C16.7097 17.5186 16.863 17.5186 16.825 17.4815V17.4886ZM7.93364 10.6672C7.93364 10.6672 8.07964 10.8098 8.16286 10.7043C8.15441 10.7719 8.12826 10.8363 8.08694 10.8912H8.20082C8.24024 11.0794 7.8183 11.0409 7.85626 11.2663H7.93364C7.93364 11.379 7.78034 11.3405 7.78034 11.379L7.8183 11.4161C7.93364 11.4161 8.08694 11.2734 8.04752 11.1536C8.24024 11.1907 8.2782 10.8912 8.4315 11.011C8.4315 11.0866 8.2855 10.9739 8.2855 11.0866C8.32346 11.1978 8.47676 11.0866 8.55414 11.1608C8.47676 11.0852 8.63006 11.0181 8.66802 11.0181C8.7454 11.1308 8.55414 11.0923 8.66802 11.1608C8.70744 11.1237 8.8987 11.1237 8.78336 11.0181C8.8987 10.9054 8.8987 11.1308 9.052 11.0552C9.052 11.1978 8.78336 11.2435 8.8987 11.3933C8.93666 11.2806 9.16734 11.3548 9.16734 11.1308C9.2053 11.1679 9.16734 11.2734 9.08996 11.3177C9.12792 11.4304 9.39656 11.2435 9.32064 11.4674L9.39656 11.3933C9.397 11.4573 9.40988 11.5208 9.43452 11.5801C9.5119 11.6172 9.78054 11.5801 9.6652 11.7228C9.70316 11.7228 9.85646 11.797 9.85646 11.6857C9.8185 11.573 9.71046 11.6857 9.71046 11.4974C9.71046 11.6401 9.85646 11.573 9.9791 11.5345V11.6101C10.0171 11.6101 10.0944 11.6472 10.1704 11.6101C10.1561 11.6251 10.1454 11.643 10.1388 11.6624C10.1323 11.6818 10.1301 11.7024 10.1324 11.7228L10.2083 11.6472C10.401 11.6857 10.1704 11.8355 10.2857 11.8726H10.1397C10.1777 11.8726 10.1777 11.9853 10.255 11.9853C10.331 11.9097 10.4463 11.8426 10.4843 11.7599C10.5996 11.7599 10.4843 11.8726 10.5996 11.8355L10.4536 11.8726C10.4156 11.8726 10.4536 12.0594 10.5295 12.0965C10.6069 12.0965 10.7982 12.0594 10.7222 11.9539C10.7602 11.9924 10.7982 12.0666 10.7222 12.0965C10.8755 12.135 10.7602 11.9853 10.8755 11.9853C10.9064 12.1118 10.9445 12.2366 10.9894 12.359L10.7982 12.4717L10.8755 12.5088C10.7222 12.5459 10.8755 12.6215 10.7602 12.6956C10.7982 12.7342 10.8755 12.7342 10.9515 12.7342C10.9135 12.4717 11.2581 12.5459 11.3354 12.359C11.5647 12.3961 11.2201 12.8839 11.6026 12.6956C11.6026 12.6215 11.7486 12.553 11.6026 12.5088C11.718 12.5844 11.7953 12.3661 11.9092 12.5088C11.7559 12.5088 11.9092 12.7712 11.718 12.7712C11.7559 12.7342 11.68 12.6956 11.642 12.6956C11.642 12.8083 11.5267 12.8839 11.642 12.9581C11.718 12.9581 11.8333 13.0337 11.8713 12.921C11.9092 12.8083 11.7559 12.8839 11.8713 12.8083C12.0625 12.8454 11.9866 13.0337 12.1779 12.8839C12.0625 12.8454 12.1019 12.7413 12.1399 12.6586H12.2552L12.2158 12.6956C12.3618 12.8383 12.3312 12.6215 12.5224 12.6956V12.8839C12.4465 12.9581 12.2932 12.6956 12.2158 12.8839C12.3312 12.9581 12.4085 12.8839 12.5224 12.9952H12.4085C12.4465 13.0337 12.3691 13.2948 12.5998 13.2577C12.7151 13.2577 12.6378 13.2206 12.7151 13.145C12.9064 13.2206 13.0217 13.1835 13.1356 13.2206C13.0217 13.3333 13.3283 13.3333 13.1356 13.4075C13.1356 13.2948 12.829 13.145 12.7151 13.2648C12.6757 13.4902 12.5691 13.1906 12.4465 13.3019C12.5925 13.3775 12.4845 13.5273 12.4465 13.6771C12.4845 13.7141 12.5618 13.6771 12.5618 13.6771C12.6378 13.6015 12.5618 13.5644 12.6378 13.4517C12.7055 13.5079 12.7879 13.5448 12.8758 13.5581C12.9636 13.5715 13.0536 13.5608 13.1356 13.5273C13.175 13.6015 13.0977 13.7141 13.0217 13.6699C13.2214 13.7678 13.4132 13.8804 13.5955 14.0066C13.5955 13.7826 13.8262 14.0822 13.8262 13.9324C13.7488 13.8568 13.7488 13.6699 13.8262 13.6328C13.8642 13.6699 13.7882 13.707 13.7882 13.7441C13.8642 13.707 13.8642 13.8197 13.9021 13.8568H13.9795C13.9415 13.8939 13.9021 13.8939 13.9021 13.8568C13.8262 13.8939 13.8262 14.0437 13.7109 14.1193C13.9021 14.1193 13.6729 14.1934 13.7882 14.2619C13.9568 14.2656 14.1241 14.2905 14.2861 14.3361C14.362 14.5615 14.708 14.5986 14.8993 14.7113C14.9373 14.8225 14.784 14.9352 14.8613 15.0108C14.9387 15.0864 14.8613 14.8225 14.9767 14.9723H14.9373C15.0146 14.9723 15.1679 15.2348 15.3212 15.085L15.1752 15.1977C15.1752 15.2348 15.2132 15.1977 15.2512 15.1977C15.2132 15.2348 15.2512 15.3104 15.1752 15.3104C15.1752 15.453 15.3665 15.4216 15.4818 15.453V15.3403C15.7111 15.3774 15.7884 15.5272 15.9417 15.6028L15.8644 15.677H16.0104C15.9344 15.7526 15.9724 15.8639 16.0877 15.8196L15.7038 15.8567C15.6658 15.7825 15.8498 15.8196 15.8498 15.7069C15.8498 15.5942 15.7038 15.5201 15.6205 15.5957C15.6585 15.6328 15.6585 15.6328 15.7359 15.6328C15.6585 15.7455 15.5811 15.7069 15.4672 15.7455L15.5052 15.7825C15.4265 15.7855 15.3481 15.7729 15.2745 15.7455C15.3899 15.7455 15.2745 15.6328 15.3519 15.6328C15.2745 15.7069 15.1606 15.6698 15.0453 15.5957C15.0453 15.4074 14.7387 15.5201 14.6628 15.4074C14.7767 15.3703 14.93 15.2961 15.0453 15.3332C15.0073 15.2205 14.93 15.2961 14.892 15.1463C14.8146 15.1834 14.6628 15.289 14.508 15.2576L14.5474 15.1834C14.4014 15.1463 14.3168 15.2576 14.2014 15.1834C14.0163 15.0101 13.8104 14.8592 13.5882 14.7341L13.6276 14.6585C13.4349 14.7712 13.2437 14.5472 13.0904 14.5472C12.8991 14.3218 12.5545 14.3218 12.4772 14.135C12.0325 14.0021 11.6075 13.8132 11.2128 13.5729L11.3588 13.4988C11.2435 13.5358 11.3588 13.4231 11.2435 13.3861C11.2814 13.5287 11.0975 13.4617 10.9748 13.4988C10.8288 13.3119 10.5149 13.2734 10.2857 13.2734L10.3237 13.1992C10.055 13.2363 9.94114 13.0123 9.71046 12.8625C9.71046 12.824 9.71046 12.7199 9.63454 12.6742C9.44182 12.7499 9.40386 12.7128 9.17464 12.6742C9.02077 12.5939 8.88904 12.4784 8.79066 12.3376C8.40814 12.3005 8.10154 12.1507 7.75552 12.001C7.94824 14.6214 9.09726 16.6441 11.1281 19.3017C11.5974 19.9219 12.1096 20.51 12.6611 21.0619L12.8918 20.838C13.1984 20.6126 13.1604 20.4628 13.543 20.0135C14.1941 19.4144 15.149 19.0021 16.0731 18.8152V18.7781L16.1111 18.7411C15.9958 18.7781 16.0731 18.6284 15.9651 18.6655C16.041 18.5528 15.8498 18.6284 15.9271 18.5528C15.8892 18.5528 15.9271 18.4415 15.9651 18.3659C15.8892 18.403 15.9271 18.3288 15.8892 18.3288L15.8118 17.9922C15.9271 17.9922 15.7359 17.9922 15.8118 17.9536C15.8169 17.9488 15.821 17.9431 15.8238 17.9367C15.8266 17.9303 15.828 17.9235 15.828 17.9166C15.828 17.9096 15.8266 17.9028 15.8238 17.8964C15.821 17.89 15.8169 17.8843 15.8118 17.8795C15.8498 17.8424 15.9271 17.8424 15.9271 17.8039C15.9651 17.7668 16.041 17.8039 16.1184 17.8039C16.1384 17.8055 16.1571 17.814 16.1713 17.8278C16.1854 17.8417 16.1941 17.86 16.1958 17.8795C16.1564 17.8424 16.0804 17.8795 16.0804 17.8795C15.9344 17.8795 16.1184 17.9536 15.9651 17.9536H16.0031C16.0031 17.9922 15.9271 17.9536 15.9651 17.9922H16.0031C15.9271 18.0292 16.1564 18.0292 16.0804 18.0663C15.9651 18.1034 16.1958 18.1419 16.0804 18.209H16.1184C16.1564 18.3217 16.0031 18.5456 16.1958 18.6212C16.1947 18.6908 16.1981 18.7604 16.206 18.8295C16.3199 18.8295 16.4746 18.7924 16.5885 18.7924C16.5621 18.8901 16.5121 18.9801 16.4425 19.0549C16.538 19.138 16.6405 19.2129 16.7491 19.2788C17.0937 19.4215 17.3623 19.2788 17.6689 19.5413C17.8149 19.7282 18.0149 19.3544 18.2062 19.4657C18.5128 19.5042 18.6267 19.1661 18.8953 19.092C19.0197 19.0031 19.1351 18.9028 19.2399 18.7924L19.2019 18.7553H19.272C19.31 18.7168 19.3479 18.6426 19.4253 18.567C19.5012 18.2675 19.6166 17.9308 19.5406 17.6683C19.4975 17.6005 19.471 17.5239 19.4633 17.4444C19.3012 17.2599 19.1598 17.059 19.0413 16.8453C19.0413 16.8082 19.0034 16.7697 19.0034 16.7326C18.6968 16.6199 18.5435 16.3959 18.1989 16.3588C18.069 16.292 17.9173 16.2781 17.777 16.3203C17.739 16.3959 17.701 16.5086 17.6616 16.5828C17.5997 16.5158 17.5481 16.4403 17.5083 16.3588H17.2411V16.433C17.2017 16.433 17.1638 16.4701 17.1258 16.5457C17.0484 16.6584 16.8192 16.5828 16.8192 16.7697C16.6279 16.9123 16.5885 17.1819 16.3973 17.3317L16.4352 17.3688C16.3593 17.3688 16.4352 17.4444 16.3593 17.4444C16.3973 17.5186 16.3593 17.5571 16.3593 17.6313H16.3199C16.2819 17.6313 16.3593 17.6313 16.3593 17.6683H16.3199C16.2819 17.6683 16.3593 17.7439 16.3199 17.781H16.244C16.2819 17.6313 16.3593 17.5186 16.2819 17.3688H16.3199C16.3199 17.219 16.4746 17.0321 16.5506 16.9194L16.5126 16.8824C16.5506 16.8824 16.5126 16.7397 16.6279 16.7697V16.7326C16.8192 16.5899 16.9345 16.3959 17.1638 16.3203C17.2411 16.2832 17.355 16.3203 17.4324 16.2461V15.9466C17.2864 15.3846 17.701 14.7113 17.2864 14.2234C17.2864 14.1863 17.4777 14.1863 17.4017 14.0365C17.0178 13.6257 16.7491 12.8012 16.7871 12.0894H16.8645C16.8645 11.9781 16.6352 11.8654 16.6352 11.7527H16.7491C16.6352 11.7527 16.6352 11.5288 16.5579 11.4903C16.5958 11.4532 16.6732 11.4161 16.7039 11.3476L16.5579 11.3105C16.2133 11.1679 16.5199 10.8241 16.2892 10.5616C16.3272 10.5616 16.3272 10.5987 16.3666 10.5616C16.098 10.1123 16.1753 9.51317 16.2206 9.02675C16.2835 9.04286 16.3474 9.05524 16.4119 9.06383C16.2659 9.02675 16.2965 8.83845 16.2965 8.68867C16.4425 8.65158 16.2586 8.42763 16.3345 8.27784V8.31493C16.2586 8.16515 16.4498 8.16515 16.3345 8.01537L16.4498 7.97828C16.3038 7.86559 16.5958 7.8285 16.5272 7.71581H16.4892C16.4892 7.60312 16.6031 7.60312 16.6031 7.49043H16.6425C16.6805 7.30356 16.8338 7.22938 16.6805 7.15378C16.8265 7.15378 16.6425 7.34065 16.8718 7.29643C16.9491 6.62313 17.409 6.02401 17.8675 5.49907C17.9449 5.49907 18.0222 5.46198 18.0602 5.49907C18.0602 5.46198 18.2062 5.3122 18.2062 5.19951H18.3201C18.4354 5.16242 18.3201 4.97555 18.4748 4.93704C18.4748 5.01264 18.4748 5.04973 18.5128 5.07968C18.5128 4.89281 18.6588 4.81864 18.742 4.70595V4.81864C18.7814 4.63034 18.9727 4.67599 19.0486 4.51908V4.59325C19.2793 4.59325 19.0107 4.40639 19.1946 4.3693C19.1567 4.40639 19.1946 4.44347 19.1946 4.48056C19.2326 4.25661 19.5406 4.14391 19.6545 4.03122V4.06974C19.8078 3.99413 20.0385 3.95705 20.1918 3.80727C20.2677 3.80727 20.2298 3.99413 20.421 3.91996C20.3831 3.77018 20.7276 3.73166 20.5364 3.58188C20.7343 3.58831 20.9311 3.55024 21.1116 3.47062C21.0342 3.54479 21.2269 3.65749 21.1116 3.69457L21.2269 3.77018C21.2269 3.84435 21.1116 3.77018 21.1875 3.84435C21.2921 3.81322 21.3945 3.77558 21.4941 3.73166C21.6095 3.6204 21.6854 3.39501 21.9161 3.35793C21.8401 3.4321 21.9934 3.54479 21.9161 3.58188L22.192 3.21528C22.2679 3.21528 22.192 3.36506 22.3059 3.28945C22.3032 3.26919 22.3054 3.24861 22.3123 3.22931C22.3191 3.21002 22.3304 3.19252 22.3453 3.17819C22.3453 3.17819 22.6519 3.10259 22.6899 3.28945C22.7278 3.32797 22.5745 3.32797 22.6519 3.36506C22.7672 3.36506 22.7672 3.28945 22.9205 3.28945C22.9965 3.28945 23.1498 3.21528 23.0665 3.10259C23.0286 3.10259 23.0665 3.17819 22.9906 3.13967C23.0198 3.13692 23.0468 3.1237 23.0665 3.10259C23.1504 3.06121 23.2416 3.03602 23.3352 3.02841C23.2972 3.02841 23.2972 3.10259 23.2972 3.13967C23.4659 3.01755 23.6641 2.94037 23.8725 2.91572C23.8415 2.94967 23.8155 2.98758 23.7951 3.02841C24.0637 3.13967 24.3324 2.87863 24.5616 3.0655C24.5236 3.0655 24.5616 2.95281 24.5616 2.98989C24.6769 2.98989 24.6769 3.13967 24.7528 3.10259C24.7528 3.17819 24.8682 3.10259 24.9456 3.0655C24.9835 3.02841 24.9456 3.10259 24.8682 3.10259C25.148 3.04266 25.4389 3.05544 25.7121 3.13967C25.7121 3.10259 25.8654 2.98989 25.9413 3.02841L25.9033 3.10259C25.9455 3.14223 25.9989 3.16857 26.0566 3.17819C26.172 3.17819 26.2858 3.13967 26.3632 3.21528C26.3253 3.21528 26.2479 3.32797 26.3253 3.36506C26.5165 3.36506 26.4012 3.32797 26.5545 3.32797H26.6698C26.7078 3.21528 26.8231 3.36506 26.7852 3.25237C26.7852 3.32797 27.0523 3.25237 26.9764 3.43923L26.9385 3.55193C27.0144 3.55193 27.0918 3.47775 27.1677 3.40928V3.48488C27.2451 3.29659 27.3137 3.55906 27.4743 3.44637C27.6203 3.55906 27.8583 3.59615 27.8962 3.74593C28.029 3.73423 28.1624 3.76049 28.2802 3.82153C28.2408 3.82153 28.2028 3.82153 28.2028 3.85862C28.2408 3.93422 28.2802 3.89571 28.3941 3.89571C28.3561 3.89571 28.5094 4.084 28.5474 4.19527C28.6627 4.19527 28.7007 4.084 28.7401 4.04549C28.7401 4.27087 29.1226 4.084 29.1226 4.34505C29.0847 4.34505 28.9314 4.34505 28.9693 4.42065C28.9693 4.64461 29.2759 4.42065 29.3518 4.60752L29.3913 4.42065C29.3913 4.53334 29.6599 4.45774 29.5373 4.60752C29.6132 4.60752 29.6526 4.75017 29.7285 4.60752C29.9198 4.86999 30.4191 4.98268 30.3797 5.35642C30.4191 5.35642 30.495 5.46911 30.533 5.39351C30.533 5.28224 30.4191 5.35642 30.4571 5.31933H30.533C30.5724 5.39351 30.6104 5.46198 30.4571 5.5062C30.495 5.73158 30.8016 5.46911 30.9549 5.69307C30.9461 5.69974 30.939 5.70828 30.9341 5.71804C30.9292 5.72781 30.9267 5.73854 30.9267 5.74941C30.9267 5.76029 30.9292 5.77102 30.9341 5.78078C30.939 5.79055 30.9461 5.79909 30.9549 5.80576H31.1462C31.2236 5.91845 31.1082 5.95554 31.0002 6.06823C31.0776 6.10532 31.1462 6.21088 31.2688 6.18092L31.2309 6.36779C31.2688 6.2551 31.3462 6.36779 31.3842 6.40488L31.3462 6.36779C31.3068 6.40488 31.3842 6.48048 31.4221 6.51044C31.4601 6.47335 31.4221 6.36779 31.4221 6.28506C31.498 6.28506 31.5375 6.36066 31.6134 6.39775C31.498 6.43484 31.6134 6.58462 31.6513 6.66022C31.6513 6.69731 31.7287 6.7344 31.7667 6.7344L31.536 5.68594C31.3328 4.89143 30.935 4.1571 30.3768 3.54622C29.3796 2.42501 27.9327 1.56912 26.5983 1.04275C23.8126 -0.0569104 20.748 -0.29199 17.8208 0.369456C13.3751 1.455 8.85344 3.66462 8.00956 8.50038C7.88177 9.2554 7.8052 10.0178 7.78034 10.7827C7.8183 10.7827 7.89422 10.7457 7.93364 10.7457C8.04752 10.6672 7.89422 10.7785 7.93364 10.6672Z" fill="#83CDF2"/>
<path fill-rule="evenodd" clip-rule="evenodd" d="M17.898 16.9209C17.8929 16.9207 17.8878 16.9216 17.8831 16.9233C17.8783 16.9251 17.874 16.9278 17.8703 16.9313C17.8666 16.9347 17.8637 16.9389 17.8617 16.9435C17.8597 16.9481 17.8587 16.953 17.8587 16.958L17.898 16.9209Z" fill="#83CDF2"/>
<path fill-rule="evenodd" clip-rule="evenodd" d="M17.9741 16.0964C18.0514 16.1706 18.2427 16.0593 18.3186 16.1706C18.358 16.2091 18.396 16.1706 18.434 16.1706C18.6252 16.0964 18.58 16.3133 18.7406 16.2462V16.2833C18.7406 16.2462 18.7406 16.2462 18.7785 16.2462C18.5038 15.8202 18.273 15.3687 18.0894 14.8982C18.0536 15.2672 17.9763 15.6313 17.8587 15.9837C17.8587 16.0964 17.9361 16.1335 17.9741 16.0964Z" fill="#83CDF2"/>
<path fill-rule="evenodd" clip-rule="evenodd" d="M29.2424 27.5167L29.127 27.4796L29.2424 27.5167ZM291.885 33.0942C291.885 33.0942 206.228 33.0571 197.874 33.02L147.743 32.7946L97.1543 32.5707L79.8314 32.458C78.0691 32.458 76.3055 32.4209 74.5432 32.4209C73.6994 32.4209 72.8569 32.4209 72.051 32.3838C66.4183 32.1955 60.7068 31.7462 55.1501 31.0358C50.8961 30.5075 46.6741 29.7575 42.5021 28.7891C42.1969 28.7135 41.8903 28.6764 41.5837 28.6008C39.5514 28.1515 37.5206 27.7021 35.4897 27.103C33.2296 26.4374 31.0359 25.5727 28.9358 24.5197C28.8978 24.5953 28.8978 24.6323 28.8584 24.6623C28.8978 24.7379 28.9358 24.9248 29.0511 24.9619C29.0296 24.982 29.0157 25.0086 29.0117 25.0375C28.9737 25.1487 29.2044 25.1487 29.1577 25.2985C29.1146 25.2705 29.0632 25.2574 29.0117 25.2614C29.1577 25.337 29.1577 25.5239 29.2424 25.6366C29.2044 25.6366 29.2044 25.5981 29.127 25.5981C29.2803 25.7478 29.127 25.8605 29.2424 25.9732L29.165 25.9361C29.0891 26.1601 29.3577 25.9732 29.3183 26.1601C29.2803 26.123 29.2424 26.1601 29.2424 26.123C29.3957 26.2728 29.3577 26.5724 29.3957 26.7592H29.3577C29.3577 26.9461 29.3183 27.1344 29.3183 27.3583C29.2803 27.4339 29.127 27.3213 29.127 27.5081C29.2803 27.5081 29.127 27.8448 29.3577 27.7706C29.3183 27.9132 29.165 28.1828 29.2044 28.2941C29.165 28.2199 28.9737 28.2941 28.9737 28.1828L28.8584 28.257C28.8204 28.2199 28.8978 28.1828 28.8204 28.1828C28.8265 28.2963 28.8137 28.41 28.7825 28.5195C28.8204 28.6621 28.9737 28.8561 28.9358 29.043C28.8978 28.9317 28.7445 29.043 28.7051 28.9688L28.8978 29.3426C28.8978 29.4182 28.7825 29.3055 28.7825 29.4182C28.8204 29.4182 28.8204 29.4924 28.8584 29.5309C28.8556 29.5593 28.842 29.5858 28.8204 29.605C29.3577 29.7177 29.9315 29.8675 30.4688 29.9802C34.9524 30.8361 39.4361 31.7391 43.9592 32.3767C49.6692 33.1627 55.4187 33.4993 61.2061 33.7247C64.386 33.7618 67.5294 33.7618 70.7107 33.7618C76.9566 33.7618 83.166 33.7989 89.4133 33.7989C107.005 33.836 124.596 33.8612 142.186 33.8745C169.283 33.9116 292 33.9858 292 33.9858V33.0942H291.885Z" fill="#83CDF2"/>
<path fill-rule="evenodd" clip-rule="evenodd" d="M17.1696 9.09386C17.1317 9.05677 17.1696 9.05677 17.1696 9.09386V9.09386Z" fill="#83CDF2"/>
<path fill-rule="evenodd" clip-rule="evenodd" d="M17.0922 8.94407L17.1693 9.01967V8.90698C17.1399 8.90979 17.1125 8.92297 17.0922 8.94407V8.94407Z" fill="#83CDF2"/>
<path fill-rule="evenodd" clip-rule="evenodd" d="M17.5916 7.52187C17.6392 7.37791 17.7031 7.23963 17.7822 7.10962C17.6294 7.1838 17.6294 7.29649 17.5916 7.52187Z" fill="#83CDF2"/>
<path fill-rule="evenodd" clip-rule="evenodd" d="M23.379 3.88862C21.5394 4.114 19.0472 5.01268 18.0514 6.66026L17.8208 7.1096C17.8602 7.1096 17.8981 7.07251 17.9668 7.034C18.58 6.13532 19.4618 5.31224 20.4196 4.89428C21.55 4.43037 22.7591 4.1764 23.9849 4.14538C24.1761 3.92143 24.4448 4.07121 24.7149 3.88291V3.95851C24.9456 3.88291 24.9835 3.9956 25.2522 4.10829C25.2522 4.03269 25.3281 4.10829 25.3281 3.95851C25.4434 3.84582 25.4814 4.18247 25.6347 4.10829C25.6347 4.14538 25.6347 4.03269 25.6741 4.07121C26.0187 3.95851 25.6347 4.14538 25.9807 4.33225C26.4786 4.37077 27.1297 4.40785 27.5867 4.70741C27.5867 4.70741 27.5867 4.59472 27.6247 4.59472C27.5867 4.82011 27.8174 4.63181 27.8933 4.73737C27.8779 4.75128 27.8597 4.76179 27.8398 4.76819C27.8199 4.77459 27.7988 4.77672 27.778 4.77446C27.9707 4.91711 28.1999 4.91711 28.3532 5.11253H28.2773C28.5839 5.11253 28.6598 5.41209 28.8905 5.44918C28.8131 5.48627 28.9284 5.56187 28.9664 5.63605C29.273 5.52336 29.273 5.93561 29.5037 5.93561H29.4643C29.8482 6.31077 30.3841 6.7915 30.6527 7.17094C30.806 7.5461 30.7301 7.77006 30.844 8.10814C30.8834 8.18231 30.9213 8.10814 30.9593 8.18231C30.9593 8.25792 30.8834 8.18231 30.844 8.2194C30.9213 8.33209 30.844 8.48187 30.768 8.70726C30.806 8.74434 30.806 8.78143 30.8834 8.78143C30.6527 8.9683 30.768 9.38055 30.5374 9.49467C30.806 9.53176 30.5768 9.68154 30.5768 9.79423C30.5374 9.83132 30.4994 9.79423 30.4614 9.75714C30.4083 9.92335 30.3006 10.0678 30.1548 10.168C30.1169 10.2807 30.1548 10.3934 30.0775 10.4675C29.8862 10.4675 29.8862 10.6929 29.7329 10.7671C29.7573 10.7898 29.776 10.8177 29.7875 10.8486C29.7991 10.8795 29.8032 10.9126 29.7995 10.9453C29.7958 10.978 29.7845 11.0094 29.7663 11.0372C29.7482 11.0649 29.7238 11.0882 29.6949 11.1052L29.5796 10.9554C29.3883 11.3662 28.7751 11.5545 28.5065 12.078L28.3912 12.0038C28.0086 12.4147 27.5152 12.6401 27.2042 13.0894C27.0337 13.1337 26.8701 13.2004 26.718 13.2877C26.6041 13.4745 26.5267 13.4745 26.5267 13.6628C26.4508 13.6999 26.3734 13.6628 26.3355 13.6628C26.1048 13.737 25.8376 13.737 25.7602 13.9995L25.7223 13.9239C25.6069 14.1122 25.4157 14.3732 25.185 14.3732C25.185 14.4859 24.9937 14.6357 25.147 14.6728C25.1091 14.7484 25.0317 14.5615 25.001 14.7113V14.5686C24.5884 14.7866 24.2028 15.0504 23.852 15.3546C23.6593 15.3176 23.468 15.6171 23.1994 15.6542C23.1235 15.7968 22.8169 15.8411 22.8169 16.0665L22.7789 15.9908C22.5418 16.1046 22.298 16.2046 22.0489 16.2904C21.8956 16.3275 21.9715 16.4773 21.8577 16.5529L21.8182 16.4773C21.7423 16.59 21.7803 16.7397 21.7803 16.8524C21.6649 16.8524 21.6649 16.8895 21.5511 16.8895C21.627 16.8154 21.627 16.6656 21.627 16.5158C21.4737 16.5529 21.4357 16.8524 21.2445 16.7768C21.0912 16.8154 21.0138 16.8895 21.0517 17.0022C21.0517 16.9651 20.9379 17.0022 20.9758 16.8895C20.9287 16.8989 20.8854 16.9217 20.8514 16.9549C20.8174 16.9881 20.7942 17.0304 20.7846 17.0764C20.7846 17.0393 20.8225 17.0393 20.8605 17.0393C20.8605 17.152 20.7451 17.182 20.8605 17.3018C20.8605 17.2647 20.8605 17.2262 20.9379 17.1891C20.9379 17.3018 20.8225 17.4145 20.7072 17.3317C20.6313 17.2576 20.7451 17.1078 20.6313 17.1078L20.4853 17.4815C20.4812 17.4701 20.4799 17.4579 20.4816 17.446C20.4833 17.434 20.488 17.4226 20.4951 17.4127C20.5023 17.4029 20.5117 17.3948 20.5227 17.3893C20.5337 17.3837 20.5459 17.3808 20.5583 17.3808C20.5706 17.3808 20.5828 17.3837 20.5938 17.3893C20.6048 17.3948 20.6142 17.4029 20.6214 17.4127C20.6285 17.4226 20.6332 17.434 20.6349 17.446C20.6366 17.4579 20.6354 17.4701 20.6313 17.4815L20.7072 17.3688L20.7451 17.4444C20.8984 17.3317 21.0912 17.3688 21.205 17.182L21.0912 17.1449C21.205 17.1078 21.2445 16.9195 21.3978 16.958C21.3978 16.9951 21.4357 17.0322 21.4737 17.1078C21.4737 17.0693 21.4737 17.0322 21.5116 17.0322L21.5511 17.219C21.4737 16.958 21.8182 16.9951 21.8182 16.9195V16.958C22.011 16.958 21.7423 16.8824 21.8577 16.8154C21.9715 16.8154 21.9715 16.958 22.1248 17.0022C22.2708 16.9266 22.5088 16.6271 22.738 16.6656C22.8637 16.55 22.9794 16.4245 23.0841 16.2904C23.1979 16.2162 23.16 16.4773 23.2374 16.3275C23.2753 16.4402 23.4286 16.5158 23.3834 16.6271C23.4213 16.6271 23.5367 16.6656 23.5367 16.59C23.5746 16.59 23.5367 16.7027 23.6126 16.6656C23.6126 16.5529 23.4666 16.4773 23.3439 16.5229C23.1906 16.4473 23.5746 16.3803 23.3834 16.2975C23.595 16.2224 23.7898 16.1081 23.9571 15.9609C23.9504 15.9751 23.9471 15.9906 23.9475 16.0062C23.9479 16.0219 23.9521 16.0372 23.9596 16.051C23.967 16.0648 23.9777 16.0768 23.9907 16.0859C24.0037 16.095 24.0187 16.101 24.0345 16.1035C24.0574 16.0188 24.1006 15.9406 24.1605 15.8754C24.2204 15.8102 24.2953 15.7598 24.3791 15.7284C24.3032 15.6542 24.2637 15.6542 24.2331 15.5415C24.2345 15.5177 24.2425 15.4947 24.2561 15.4749C24.2697 15.4551 24.2885 15.4392 24.3105 15.4288C24.3864 15.5044 24.5017 15.6913 24.655 15.5715C24.693 15.7598 24.3864 15.6842 24.5776 15.8339C24.5776 16.0208 24.3484 16.1706 24.2331 16.1335C24.1951 16.3589 24.3484 16.0964 24.3791 16.2462C24.4944 16.1706 24.4944 16.0593 24.6857 15.9466C24.6477 15.871 24.5703 15.9095 24.6098 15.7968C24.6857 15.5715 24.8769 15.7968 24.9164 15.7598L24.8769 15.8339C25.0229 15.8339 24.9923 15.6913 25.1076 15.6471C25.2609 15.7897 24.9543 15.7598 24.9543 15.9095L25.1076 15.9837C25.2989 15.9095 25.0697 15.7968 25.2609 15.7212V15.7968L25.3368 15.6842C25.2989 15.61 25.223 15.5415 25.1076 15.61C25.0697 15.3846 25.1835 15.5344 25.2989 15.3846C25.2989 15.2719 25.2609 15.4217 25.1835 15.3475C25.1062 15.2733 25.1835 15.2049 25.2609 15.1221C25.3763 15.0479 25.3763 15.1977 25.4901 15.2348C25.4901 15.2348 25.4142 15.3104 25.3763 15.2719C25.2989 15.4602 25.5675 15.4146 25.5296 15.5715C25.7208 15.5715 25.5296 15.3846 25.6756 15.3104C25.5982 15.4217 25.5982 15.2719 25.5602 15.2348C25.5602 14.8611 25.8289 15.3475 25.9427 15.1977C25.7894 15.0479 26.0201 14.8226 25.7894 14.7113C25.8289 14.6357 25.8289 14.5686 25.9048 14.5686C25.9048 14.7113 26.0581 14.6057 26.0201 14.7926L26.096 14.7555V14.978C26.2114 15.0166 26.4026 15.0166 26.48 15.0537C26.5559 14.941 26.4026 14.941 26.48 14.8668C26.48 14.941 26.5559 14.941 26.6333 14.9039C26.518 14.9039 26.518 14.7612 26.5954 14.6785C26.7092 14.6414 26.8625 14.6785 26.8625 14.717L26.8246 14.8668C26.8246 14.7541 26.902 14.9039 26.9399 14.8283C26.902 14.7541 26.902 14.6043 26.8625 14.5287C26.902 14.4545 27.0158 14.5287 27.0158 14.4916L26.9779 14.6043C27.0932 14.4916 27.1239 14.747 27.2465 14.6414V14.5287C27.2845 14.5287 27.3224 14.5287 27.3224 14.6043C27.3224 14.5287 27.3998 14.4916 27.3998 14.4617L27.4378 14.4988C27.4757 14.4246 27.4378 14.2363 27.5911 14.3119C27.4378 14.1992 27.5152 14.349 27.3619 14.349C27.2465 14.2748 27.3998 14.2063 27.3998 14.1621C27.4757 14.3048 27.5531 14.0865 27.629 14.0195L27.8218 14.0565L27.7823 13.9439C27.9356 14.1321 27.8977 13.8012 28.013 13.8012C28.013 13.8768 28.0889 13.9895 28.1663 13.9439C27.9751 13.8697 28.1663 13.6828 28.0889 13.5701C28.2817 13.533 28.1663 13.7941 28.2817 13.8697C28.2817 13.727 28.5109 13.8326 28.435 13.6443C28.3196 13.6828 28.3955 13.5701 28.3576 13.4574C28.4729 13.3832 28.3576 13.533 28.5109 13.533C28.5488 13.4945 28.5488 13.3076 28.435 13.3447C28.5109 13.3447 28.5109 13.1208 28.6642 13.1579C28.7795 13.2335 28.5488 13.3076 28.6642 13.3447C28.8554 13.2335 28.5883 13.0452 28.7021 12.8954C28.6262 12.8954 28.5488 12.7085 28.5883 12.5958C28.7795 12.5217 28.5488 12.7085 28.7021 12.7841L28.7416 12.7085C28.9708 12.7841 28.7416 13.1208 28.9328 13.1579L28.9708 13.0452C28.9745 13.083 28.9867 13.1195 29.0067 13.152C29.0266 13.1846 29.0538 13.2124 29.0861 13.2335C29.0482 13.1208 29.2321 13.0908 29.2321 13.0452C29.1942 12.971 29.1942 13.1208 29.1547 13.0452C29.1942 12.971 29.1547 12.7841 29.308 12.7456C29.2701 12.8583 29.4234 12.8583 29.4234 12.9339C29.5008 12.9339 29.3854 12.8212 29.5008 12.7913V12.8383C29.8453 12.6144 30.3052 12.2392 30.3432 11.7528C30.4892 11.7528 30.5739 11.6772 30.8031 11.5659C30.7272 11.603 30.7272 11.4903 30.7272 11.4532H30.8805C31.0265 11.4161 31.0265 11.1908 31.0265 11.0781L31.1024 11.1166C31.2484 11.0781 31.1024 10.9668 31.1024 10.9283H31.2177L31.1403 10.8541C31.1798 10.7414 31.2557 10.6287 31.409 10.7115C31.409 10.6744 31.409 10.5988 31.3331 10.6359C31.4864 10.5988 31.6397 10.3363 31.7156 10.1494C31.6397 10.225 31.6002 10.1865 31.4864 10.1494C31.371 10.0367 31.5243 10.1494 31.4864 10.0068C31.5243 10.0439 31.6397 10.0068 31.6397 10.0824C31.9842 9.89409 31.9842 9.44475 32.0601 9.14518C32.0601 9.07101 32.0222 9.07101 32.0222 9.03392C32.2134 8.84562 32.1375 8.54606 32.1755 8.28502C32.0996 8.32211 31.9068 8.2465 31.9068 8.14237C31.793 7.99972 32.0996 8.06677 32.1755 7.91699C32.0996 7.8799 32.0996 7.76721 32.0996 7.69303C32.0583 7.64703 32.0268 7.59342 32.007 7.53537C31.9872 7.47731 31.9794 7.41597 31.9842 7.35496C31.9842 7.24369 32.0222 7.16809 31.9842 7.09391C31.8689 7.09391 31.8309 6.90562 31.7156 6.90562L31.7535 6.86853L31.6776 6.90562V6.79435L30.6804 5.89567C28.7824 4.26378 26.061 3.55197 23.379 3.88862Z" fill="white"/>
<path fill-rule="evenodd" clip-rule="evenodd" d="M18.0514 15.0108C18.1342 14.4505 18.1213 13.8808 18.0135 13.3247C17.7828 12.7255 17.6295 12.7255 17.5915 12.3147C17.1696 11.2277 17.2076 10.1051 17.2849 9.09373C17.247 9.13082 17.2076 9.09373 17.1696 9.05664C17.0757 9.63867 17.0371 10.2279 17.0543 10.8169C17.0706 12.2691 17.4109 13.7003 18.0514 15.0108V15.0108Z" fill="#83CDF2"/>
<path fill-rule="evenodd" clip-rule="evenodd" d="M19.0866 16.7697C19.1203 16.8644 19.1696 16.953 19.2326 17.0322C19.4253 17.1078 19.4253 17.2947 19.4633 17.4444C19.5434 17.5752 19.6332 17.7001 19.7319 17.8182C19.7142 17.6829 19.6614 17.5542 19.5786 17.4444C19.5012 17.2576 19.4633 17.0322 19.272 16.8453L19.126 16.6584C18.9333 16.6199 18.9347 16.3589 18.7041 16.396L18.742 16.3589C18.7041 16.396 18.7041 16.3589 18.6661 16.3589C18.742 16.4702 18.8121 16.6199 18.8953 16.7326C18.9561 16.7567 19.021 16.7692 19.0866 16.7697V16.7697Z" fill="#83CDF2"/>
<path fill-rule="evenodd" clip-rule="evenodd" d="M28.3983 30.063V30.0259C28.3241 30.063 28.3605 30.063 28.3983 30.063Z" fill="#83CDF2"/>
<path fill-rule="evenodd" clip-rule="evenodd" d="M2.03085 20.8522H2.06868C2.10797 20.7766 2.06868 20.8137 2.03085 20.8522Z" fill="#83CDF2"/>
<path fill-rule="evenodd" clip-rule="evenodd" d="M28.47 30.4752C28.5078 30.4752 28.5078 30.5123 28.5471 30.4752C28.5421 30.4803 28.5361 30.4843 28.5295 30.487C28.5229 30.4898 28.5157 30.4912 28.5086 30.4912C28.5014 30.4912 28.4943 30.4898 28.4876 30.487C28.481 30.4843 28.475 30.4803 28.47 30.4752Z" fill="#83CDF2"/>
<path fill-rule="evenodd" clip-rule="evenodd" d="M1.60597 20.7395C1.60597 20.7395 1.71946 20.7024 1.60597 20.6268C1.68599 20.7395 1.57105 20.6653 1.60597 20.7395Z" fill="#83CDF2"/>
<path fill-rule="evenodd" clip-rule="evenodd" d="M3.90975 22.8736L3.98541 22.7623L3.87047 22.8365L3.90975 22.8736Z" fill="#83CDF2"/>
<path fill-rule="evenodd" clip-rule="evenodd" d="M28.4364 30.5123C28.4364 30.4752 28.4757 30.4752 28.4364 30.5123C28.4699 30.4752 28.4364 30.4752 28.4364 30.5123Z" fill="#83CDF2"/>
<path fill-rule="evenodd" clip-rule="evenodd" d="M24.2214 34.7818L24.2985 34.7062H24.2214V34.7818Z" fill="#83CDF2"/>
<path fill-rule="evenodd" clip-rule="evenodd" d="M23.3396 16.7325C23.3396 16.6954 23.3789 16.6954 23.3789 16.6583C23.3396 16.6583 23.3396 16.6897 23.3396 16.7325Z" fill="#83CDF2"/>
<path fill-rule="evenodd" clip-rule="evenodd" d="M17.247 8.98673C17.4003 8.57448 17.3609 8.16223 17.5915 7.78849C17.5142 7.74998 17.5915 7.64585 17.5915 7.56311C17.4063 7.99497 17.2773 8.44786 17.2076 8.91113C17.2076 8.94394 17.247 8.94394 17.247 8.98673Z" fill="#83CDF2"/>
<path fill-rule="evenodd" clip-rule="evenodd" d="M18.4734 33.2469C18.4732 33.2519 18.474 33.2568 18.4758 33.2614C18.4777 33.266 18.4805 33.2701 18.484 33.2736C18.4876 33.2771 18.4918 33.2798 18.4965 33.2816C18.5012 33.2834 18.5062 33.2842 18.5112 33.284L18.4734 33.2469Z" fill="#83CDF2"/>
<path fill-rule="evenodd" clip-rule="evenodd" d="M31.924 6.92276C31.924 6.81006 31.8861 6.84715 31.8105 6.84715V6.88424L31.924 6.92276Z" fill="#83CDF2"/>
<path fill-rule="evenodd" clip-rule="evenodd" d="M31.8104 6.70447V6.78007C31.8104 6.73585 31.7711 6.70447 31.8104 6.70447Z" fill="#83CDF2"/>
<path fill-rule="evenodd" clip-rule="evenodd" d="M22.957 20.8522C24.1455 21.0391 25.1032 21.6753 25.9457 22.2003C25.9457 22.1247 26.023 22.1247 26.0917 22.1247V22.1632L26.245 22.1247C26.2829 22.1632 26.207 22.2374 26.1296 22.2003C26.4377 22.5369 26.8202 22.7238 27.0056 23.0989C27.121 23.0233 27.1589 23.2416 27.2743 23.1731C27.2743 23.2116 27.2743 23.1731 27.2363 23.1731C27.4655 23.3614 27.4509 23.5226 27.4509 23.8222C27.8935 24.0907 28.3545 24.329 28.8306 24.5354C28.8512 24.5564 28.8785 24.57 28.908 24.5739C28.6773 23.9363 28.4233 23.1389 27.8495 22.7266C27.9254 22.5398 28.0408 22.7652 28.1181 22.6525C28.0028 22.7266 28.0028 22.5769 27.8495 22.4656C27.7721 22.4271 27.8495 22.3158 27.7342 22.2773C27.6188 22.2773 27.7342 21.9777 27.5429 22.0904L27.5809 21.9777C27.3896 22.0163 27.5049 21.828 27.3122 21.828H27.3516C27.2743 21.6782 26.9677 21.7538 27.0056 21.604C26.8903 21.5284 26.7384 21.4542 26.6231 21.5284C26.6231 21.4913 26.699 21.4171 26.7384 21.3786C26.3165 21.0791 25.7792 20.7424 25.2784 20.7424C25.2784 20.7053 25.2784 20.7053 25.3164 20.6682C24.9718 20.7053 24.8185 20.2931 24.5119 20.5185L24.3966 20.5926C24.3586 20.5185 24.3966 20.4428 24.3586 20.3687C24.2827 20.4428 24.09 20.3302 24.052 20.4058C24.052 20.3687 24.09 20.3687 24.09 20.3302C23.9747 20.2931 23.7834 20.4058 23.6695 20.3302L23.7075 20.2931C23.0943 19.9193 22.2475 19.6939 21.6752 19.8437C21.5292 19.8437 21.6372 19.6939 21.5992 19.6569H21.37C21.7525 20.0306 22.1745 20.4058 22.5964 20.7795C22.7204 20.78 22.843 20.8047 22.957 20.8522Z" fill="white"/>
<path fill-rule="evenodd" clip-rule="evenodd" d="M30.4308 9.84357C30.4697 9.84357 30.4697 9.80442 30.4308 9.84357V9.84357Z" fill="#83CDF2"/>
<path fill-rule="evenodd" clip-rule="evenodd" d="M0 14.8982L0.03783 14.9724L0.077115 14.8982H0Z" fill="#83CDF2"/>
<path fill-rule="evenodd" clip-rule="evenodd" d="M16.2878 25.6452C16.3271 25.6452 16.3649 25.6081 16.4027 25.5696C16.2878 25.4954 16.3649 25.6452 16.2878 25.6452Z" fill="#83CDF2"/>
<path fill-rule="evenodd" clip-rule="evenodd" d="M16.1724 25.3828C16.1724 25.4584 16.1724 25.4955 16.2495 25.4199L16.1724 25.3828Z" fill="#83CDF2"/>
<path fill-rule="evenodd" clip-rule="evenodd" d="M16.5944 24.5582C16.5944 24.6338 16.5944 24.8207 16.6715 24.8578L16.5944 24.5582Z" fill="#83CDF2"/>
<path fill-rule="evenodd" clip-rule="evenodd" d="M15.8672 27.143C15.9429 27.143 15.9051 27.0303 15.9051 26.9933C15.7901 26.9605 15.9051 27.1031 15.8672 27.143Z" fill="#83CDF2"/>
<path fill-rule="evenodd" clip-rule="evenodd" d="M12.7238 21.1518C11.9938 21.9007 11.0754 22.3871 10.233 22.7623C10.3089 22.7994 10.271 22.8736 10.233 22.9121V22.8736L10.1936 22.9863C10.1177 23.0234 10.1177 22.9121 10.1936 22.8736C9.7731 22.9492 9.38912 23.2116 8.92922 23.1731C8.92922 23.3229 8.7 23.2116 8.7 23.3614V23.3229C8.3934 23.3985 8.35398 23.4727 8.0868 23.2487C6.97428 23.2116 5.7873 22.8736 4.98138 22.2374C4.01344 21.5067 3.19476 20.6047 2.568 19.5784C2.2614 19.5042 2.2614 19.2047 1.9548 19.092H2.03072C1.83946 18.9422 1.9548 18.8295 1.91538 18.5685C1.83946 18.6056 1.87742 18.4929 1.76938 18.5685C1.61608 18.5299 1.88472 18.3431 1.76938 18.2304C1.8088 18.2304 1.69346 18.2689 1.73142 18.2304C1.46278 17.9693 1.8088 18.2304 1.8088 17.8196C1.57812 17.3702 1.3489 16.8082 1.38686 16.2504C1.38686 16.2875 1.27152 16.326 1.27152 16.2504C1.5022 16.1763 1.1956 16.0636 1.27152 15.9509C1.30948 15.9509 1.30948 15.988 1.3489 16.0265C1.38686 15.764 1.27152 15.5771 1.38686 15.3518V15.4274C1.24086 15.202 1.46278 14.9395 1.38686 14.7526C1.46278 14.7897 1.46278 14.6399 1.5022 14.61C1.27152 14.4231 1.61608 14.1977 1.5022 14.0109H1.54016C1.65514 13.4602 1.82179 12.9211 2.03802 12.4004C2.30666 12.0637 2.53588 12.0266 2.80452 11.7642C2.84248 11.69 2.76656 11.69 2.80452 11.6515C2.84248 11.613 2.84248 11.69 2.8819 11.7271C2.91986 11.5844 3.14908 11.6144 3.3418 11.5402C3.3418 11.5017 3.37976 11.4646 3.3418 11.4275C3.6484 11.5017 3.91558 11.2021 4.14626 11.3519C4.06888 11.128 4.2616 11.2093 4.37548 11.165C4.4149 11.165 4.4149 11.2406 4.4149 11.2777C4.59422 11.2542 4.77657 11.2669 4.95072 11.3148C5.06606 11.3148 5.09672 11.2021 5.25732 11.2777C5.3347 11.4204 5.56392 11.3148 5.67926 11.3904C5.67926 11.2478 5.87052 11.2021 5.98586 11.2777L5.90848 11.4204C6.36838 11.3833 6.82828 11.7941 7.44148 11.7941V11.9068C7.61598 11.9462 7.78404 12.0091 7.9408 12.0937C7.9408 11.8326 7.90138 11.6073 7.90138 11.3448V10.7414C7.87336 10.7606 7.83997 10.7709 7.80575 10.7709C7.77152 10.7709 7.73813 10.7606 7.71012 10.7414C7.82546 10.7043 7.71012 10.5987 7.7875 10.5174C7.74808 10.4418 7.71012 10.6301 7.6415 10.5174L7.67946 10.4803C7.29548 10.292 6.75966 10.1052 6.29976 10.292C6.2618 10.1423 6.15376 10.1052 5.91578 9.99248C5.99316 10.031 5.91578 10.1052 5.83986 10.1052L5.76248 9.96252C5.6486 9.88835 5.45588 9.96252 5.342 9.99961V9.92544C5.22666 9.81274 5.22666 9.96252 5.14928 9.99961L5.11132 9.88835L5.07336 9.96252C4.95802 9.99961 4.80472 9.96252 4.84268 9.81274C4.80472 9.84983 4.7288 9.84983 4.80472 9.92544C4.68938 9.81274 4.38278 9.81274 4.15356 9.84983C4.2689 9.88835 4.22948 9.92544 4.2689 10.0381C4.22948 10.1879 4.22948 9.99961 4.15356 10.1123C4.15356 10.0752 4.03822 9.99961 4.15356 9.96966C3.809 9.78279 3.38706 9.96966 3.08046 10.0453C3.00308 10.0823 3.0425 10.1194 3.0425 10.1565C2.77386 10.0823 2.54318 10.3063 2.276 10.3819C2.35192 10.419 2.35192 10.6444 2.276 10.6815C2.23658 10.8683 2.1227 10.5688 1.9694 10.5688C1.9694 10.6444 1.85406 10.7186 1.8161 10.7556C1.8161 10.8683 1.73872 10.9439 1.58542 11.0181V10.981C1.5095 11.0552 1.39416 11.0552 1.31678 11.1308C1.39416 11.2435 1.2029 11.3548 1.27882 11.4675H1.22626L1.30218 11.5431L1.15618 11.6172L1.11822 11.4746C0.964916 11.5502 1.15618 11.5873 1.15618 11.6615C1.15618 11.8112 1.08026 11.7371 1.01018 11.7371C1.01018 11.7 1.08756 11.7 1.08756 11.6615C1.08756 11.5873 1.01018 11.7 0.972216 11.6615C0.982691 11.6711 0.99104 11.6827 0.996747 11.6955C1.00245 11.7084 1.0054 11.7223 1.0054 11.7363C1.0054 11.7504 1.00245 11.7643 0.996747 11.7772C0.99104 11.79 0.982691 11.8016 0.972216 11.8112C0.934256 11.8498 0.856876 12.0366 0.780956 11.9539C0.780956 12.0295 0.742996 12.0965 0.780956 12.1793C0.835512 12.1285 0.900798 12.09 0.972216 12.0666C0.972216 12.1037 0.934256 12.2164 0.896296 12.2164V12.1793C0.896296 12.2164 0.818916 12.3661 0.934256 12.3219L0.729856 12.3519C0.805776 12.4275 0.729856 12.5387 0.729856 12.6143C0.614516 12.5773 0.499176 12.4646 0.423256 12.6143L0.499176 12.757C0.499176 12.8312 0.461216 12.8312 0.383836 12.7941C0.237836 13.0566 0.614516 13.1692 0.461216 13.319C0.345876 13.2063 0.315216 13.2805 0.269956 13.3561C0.29057 13.3761 0.303905 13.4022 0.307916 13.4303C0.383836 13.4303 0.230536 13.3561 0.345876 13.319C0.423256 13.319 0.383836 13.4303 0.383836 13.4617C0.0392762 13.5729 0.192576 14.0979 0.0392761 14.3604C0.192576 14.3604 0.0772361 14.4716 0.154616 14.5472C-0.0366439 14.5472 0.154616 14.6899 0.0772361 14.7712L0.230536 14.7341C0.116656 14.921 0.499176 15.0337 0.269956 15.1463C0.230536 15.259 0.154616 15.1078 0.123956 15.0707C-0.0687639 15.2134 0.277256 15.4459 0.0845361 15.5586C0.161916 15.5586 0.277256 15.5201 0.353176 15.6328C0.277256 15.7455 0.207176 15.9323 0.161916 15.9323C0.199876 16.0079 0.237836 16.0079 0.199876 16.1192L0.123956 16.045C0.120037 16.1145 0.13173 16.1839 0.158213 16.2485C0.184697 16.3131 0.22533 16.3712 0.277256 16.4188C0.161916 16.4944 0.237836 16.7568 0.199876 16.9066C0.391136 16.9437 0.199876 17.1677 0.391136 17.1306L0.353176 17.1677C0.430556 17.2062 0.583856 17.2433 0.583856 17.3103H0.437856C0.291856 17.3103 0.437856 17.5357 0.360476 17.5728C0.475816 17.4986 0.360476 17.6484 0.475816 17.6484L0.551736 17.7226C0.629116 17.8353 0.629116 17.7226 0.697736 17.8652C0.737156 17.9408 0.551736 17.9408 0.583856 17.9023C0.544436 18.015 0.621816 18.0906 0.659776 18.2019C0.659776 18.1648 0.621816 18.1277 0.659776 18.1648V18.2404L0.697736 18.2775V18.3902H0.575096C0.575096 18.4643 0.766356 18.5328 0.804316 18.5328C0.804316 18.8324 1.07296 19.169 1.1883 19.2817C1.14888 19.2061 1.07296 19.2432 1.14888 19.2432C1.1883 19.3188 1.29488 19.3559 1.26422 19.3858C1.3416 19.4243 1.22626 19.4985 1.26422 19.6112C1.26422 19.6112 1.37956 19.5741 1.3416 19.5741C1.26422 19.8352 1.6482 19.9479 1.68616 20.2474H1.57082C1.69592 20.4022 1.85252 20.5299 2.03072 20.6226C1.99276 20.6226 1.9548 20.6597 1.87742 20.6226C1.93553 20.7042 2.01527 20.7688 2.1081 20.8095C2.14606 20.6968 2.29936 20.7724 2.33732 20.8465C2.4147 20.9592 2.45266 20.9222 2.52858 21.0334C2.52858 21.1461 2.49062 20.9963 2.45266 21.0719C2.33732 21.1832 2.52858 21.3715 2.52858 21.4086C2.568 21.4086 2.60596 21.4457 2.64392 21.4086C2.75926 21.4457 2.60596 21.4828 2.64392 21.5584L3.10382 21.5954C3.0279 21.5584 3.0279 21.7452 2.91256 21.7081C3.06586 21.8579 3.29508 21.8208 3.44838 21.8579C3.44838 21.895 3.67906 22.0077 3.71702 22.0448C3.67906 22.1204 3.67906 22.0077 3.6411 22.0448V22.1874C3.56372 22.1133 3.56372 22.3001 3.44838 22.3001C3.56372 22.3372 3.71702 22.5626 3.83236 22.7124C3.87032 22.487 4.06158 22.7866 4.17692 22.6739C4.33022 22.7495 4.17692 22.8165 4.17692 22.9363C4.35882 23.043 4.52527 23.173 4.67186 23.3229V23.3614C4.81786 23.3985 5.05584 23.5854 5.28506 23.5483C5.28506 23.5483 5.2471 23.6225 5.20914 23.6225C5.32448 23.7723 5.32448 23.4356 5.47778 23.6225L5.4004 23.661C5.5537 23.661 5.63108 23.8479 5.78438 23.7723C5.78438 23.8108 5.74496 23.8108 5.707 23.8479C5.853 23.8479 5.97564 23.922 6.12894 23.8479C6.12894 23.8849 6.09098 23.922 6.0136 23.9605C6.12894 24.0347 6.20486 23.8479 6.3202 23.922C6.35816 23.922 6.39758 24.0347 6.35816 24.0347C6.47272 24.0162 6.58962 24.0162 6.70418 24.0347C6.70418 24.0718 6.74214 24.1103 6.81806 24.1774C7.50864 24.3272 8.23718 24.4028 8.88834 24.1403C9.00368 24.2901 8.74234 24.253 8.81096 24.4028C8.81096 24.253 8.9263 24.3272 9.15698 24.253C9.2329 24.2145 9.30298 24.2901 9.42416 24.253V24.2145C9.50154 24.1032 9.6928 24.3571 9.6928 24.1774L9.80814 24.253C9.8461 24.0647 9.95414 24.253 10.0768 24.1103V24.1474C10.268 24.1845 10.344 23.8849 10.4593 23.9976C10.5746 23.922 10.7279 23.855 10.7279 23.6981C10.7581 23.7421 10.7715 23.7951 10.7659 23.8479C11.2258 23.6225 11.801 23.3614 12.0697 22.9492C12.1076 22.9492 12.1076 22.9863 12.1076 23.0234C12.223 22.7238 12.6829 22.7994 12.6435 22.4242V22.2816C12.7208 22.2816 12.7588 22.3201 12.8362 22.3201C12.8362 22.2445 13.0274 22.1318 12.9501 22.0205C12.9895 22.0205 12.9895 22.0576 12.9895 22.0947C13.1034 22.0205 13.0654 21.7952 13.1807 21.721V21.7581C13.2567 21.7581 13.2961 21.6825 13.372 21.6454C13.0683 21.5256 12.915 21.3387 12.7238 21.1518Z" fill="white"/>
<path fill-rule="evenodd" clip-rule="evenodd" d="M27.0188 30.2884C27.1341 30.588 26.8655 30.7378 26.9049 31.0373L26.8655 31.0003C26.8275 31.2242 26.7195 31.1871 26.4829 31.3369C26.5209 31.374 26.445 31.4496 26.5589 31.4796C26.5983 31.6293 26.2917 31.4796 26.2523 31.6664C26.2143 31.6293 26.3296 31.7035 26.2523 31.7035C26.1763 32.0787 26.2143 31.6293 25.8697 31.8462C25.6011 32.2584 25.2186 32.7834 24.7193 33.0073C24.7587 33.0073 24.8346 33.0444 24.7966 33.0829C24.6054 32.9331 24.6813 33.2256 24.528 33.2256V33.1129C24.2594 33.15 24.1834 33.4124 23.9148 33.4495L23.9528 33.4124C23.8389 33.6749 23.4929 33.5622 23.4169 33.7862C23.4169 33.712 23.2709 33.7862 23.2257 33.7862C23.1483 34.1242 22.7658 33.8989 22.6884 34.1242V34.0857C22.1422 34.2843 21.5774 34.43 21.0021 34.5208C20.7335 34.5208 20.2356 34.2583 20.0823 34.2583C20.0064 34.2583 20.0443 34.3339 19.967 34.3339C19.891 34.2968 20.0064 34.2583 19.967 34.2212C19.7377 34.2212 19.5844 34.0344 19.4311 33.9217C19.3932 33.9217 19.3158 33.9217 19.3158 33.9588C19.2778 33.6977 18.6646 33.6221 18.6646 33.3982C18.5873 33.6221 18.4734 33.3982 18.396 33.3982C18.358 33.3596 18.396 33.3226 18.434 33.3226C18.2807 33.2099 18.0894 33.0601 18.0514 32.9103C18.0135 32.8732 17.9054 32.9103 17.8602 32.8361C17.9741 32.7605 17.7142 32.5737 17.7142 32.461C17.682 32.4792 17.6454 32.4886 17.6083 32.488C17.5711 32.4874 17.5348 32.477 17.5033 32.4578C17.4717 32.4385 17.4462 32.4113 17.4293 32.3789C17.4124 32.3466 17.4049 32.3103 17.4076 32.2741L17.5988 32.237C17.2543 31.8618 17.4076 31.4881 17.1389 30.9261L17.2543 30.889C17.1083 30.364 17.2543 29.8405 17.0236 29.3199C17.0943 29.1667 17.1334 29.0014 17.1389 28.8334C17.1006 28.6785 17.021 28.5363 16.9083 28.4212C16.9083 28.347 16.9856 28.3085 17.0236 28.2785C17.0236 28.1288 17.2543 27.9048 17.101 27.7165H17.1769C17.101 27.5296 17.0616 27.2301 17.1769 27.0432C17.101 26.9676 17.101 26.7436 16.9856 26.8178C16.9856 26.7436 17.1769 26.7807 17.0616 26.7066L17.1769 26.8178C17.2848 26.3764 17.3363 25.9236 17.3302 25.4698C17.4076 25.4327 17.4076 25.3585 17.4455 25.2458C17.2149 25.1032 17.0236 24.9463 16.7944 24.7965C16.7944 24.9092 16.717 25.059 16.717 25.1702C16.717 25.0961 16.6017 25.059 16.5257 25.1332C16.5699 25.199 16.5965 25.2746 16.6032 25.3531C16.6098 25.4316 16.5962 25.5104 16.5637 25.5825C16.679 25.5825 16.679 25.5454 16.7944 25.5825C16.7944 25.6196 16.8323 25.6581 16.8323 25.6952C16.717 25.6952 16.5257 25.6581 16.4878 25.8079C16.2951 25.7323 16.5637 25.5454 16.3724 25.5825C16.2571 25.4698 16.2951 25.2088 16.3724 25.1702C16.2571 24.9834 16.3345 25.2829 16.1812 25.2088C16.1812 25.3585 16.2191 25.4327 16.2191 25.6196C16.2951 25.6196 16.3345 25.5825 16.3651 25.6581C16.5111 25.8821 16.2191 25.8821 16.1739 25.9191V25.845C16.0965 25.9191 16.1739 25.9876 16.1739 26.1445C15.9432 26.1445 16.1739 25.9577 16.0585 25.845L15.9125 25.9191C15.8352 26.1074 16.0585 25.9947 15.9885 26.1816L15.9125 26.1445V26.2472C15.9885 26.2472 16.1038 26.2472 16.1418 26.1716C16.3345 26.2843 16.1418 26.2843 16.1418 26.4712C16.2571 26.5468 16.1418 26.397 16.2571 26.4341C16.3724 26.4341 16.3345 26.5468 16.3345 26.621C16.3345 26.7708 16.2191 26.6581 16.1038 26.6966C16.1038 26.6581 16.1038 26.5539 16.1418 26.5839C16.0658 26.397 15.8746 26.5839 15.7972 26.4712C15.6819 26.5839 15.9125 26.6138 15.8746 26.7337C15.8352 26.591 15.9505 26.7337 16.0206 26.6966C16.2878 26.9961 15.7519 26.7708 15.7519 27.0332C15.9812 27.0332 15.9812 27.407 16.2498 27.2572C16.2498 27.2957 16.2878 27.407 16.2878 27.4455C16.1418 27.3699 16.1418 27.5197 16.0206 27.407V27.4826L15.8746 27.3399C15.7592 27.4141 15.6439 27.5639 15.568 27.6024C15.6059 27.7137 15.714 27.6024 15.714 27.7137C15.6366 27.6766 15.568 27.7137 15.568 27.7893C15.6439 27.6766 15.7592 27.8263 15.7972 27.9019C15.7972 28.0132 15.6059 28.163 15.6059 28.163C15.5756 28.0963 15.5369 28.0335 15.4906 27.9761C15.568 28.0888 15.4526 28.0132 15.4526 28.2015C15.5286 28.2386 15.6439 28.3513 15.7592 28.3513C15.7972 28.4255 15.6819 28.464 15.7213 28.4939L15.6439 28.3812C15.6819 28.531 15.4147 28.4183 15.4979 28.5681L15.6132 28.6066C15.6132 28.6437 15.5359 28.6437 15.4979 28.6066C15.5753 28.6066 15.5753 28.7179 15.5753 28.7493H15.4979C15.5359 28.8249 15.7286 28.9005 15.5753 28.9747C15.7213 28.9005 15.5753 28.9005 15.6512 28.7878C15.7665 28.7122 15.7665 28.8991 15.8045 28.9304C15.6132 28.9304 15.8045 29.0802 15.8045 29.1915C15.7472 29.2202 15.6953 29.2583 15.6512 29.3042L15.7665 29.3427C15.4979 29.3427 15.8045 29.4853 15.7286 29.6037C15.6512 29.5666 15.5738 29.5666 15.5359 29.6422C15.7286 29.5666 15.7665 29.7849 15.8819 29.7535C15.8045 29.8962 15.6512 29.7164 15.4979 29.7535C15.6439 29.8291 15.422 29.9418 15.5753 30.016C15.6132 29.9033 15.6892 30.016 15.7665 30.0531C15.7665 30.2029 15.6892 30.0531 15.6512 30.1287C15.6512 30.1658 15.8045 30.2785 15.8819 30.1658C15.8425 30.2414 15.9958 30.3526 15.8819 30.4653C15.7665 30.5024 15.8425 30.2785 15.7665 30.3526C15.7665 30.5409 16.0352 30.4282 16.0731 30.6522C16.1111 30.578 16.3418 30.6522 16.4177 30.7278C16.3797 30.9518 16.3418 30.6522 16.2264 30.7278V30.812C16.0352 30.9617 15.8819 30.5509 15.7286 30.7007L15.8045 30.7749C15.7665 30.7749 15.6512 30.7378 15.5753 30.7749C15.7213 30.7749 15.6132 31.0003 15.6512 31.0003C15.7665 31.0003 15.6132 30.9247 15.6892 30.9617C15.7286 31.0744 15.9198 31.0744 15.8352 31.2613C15.7592 31.1871 15.6892 31.2998 15.6059 31.2613C15.5665 31.3369 15.7519 31.2613 15.6819 31.4039H15.8746C15.8746 31.8162 16.0658 32.528 16.4878 32.7149C16.4104 32.8276 16.4878 32.9403 16.4878 33.1642C16.4878 33.09 16.5637 33.1271 16.6017 33.1642L16.5257 33.314C16.4878 33.4267 16.6717 33.5394 16.8703 33.6506L16.8323 33.7263C16.8323 33.9131 16.9856 33.8004 17.0236 33.8389V33.9502L17.101 33.9131C17.2149 33.9887 17.2922 34.1 17.1769 34.2127C17.2149 34.2127 17.2543 34.2127 17.2543 34.1756C17.2543 34.2883 17.4455 34.4752 17.6748 34.6249C17.6368 34.5122 17.6748 34.5122 17.7142 34.4381C17.8602 34.3625 17.7142 34.4752 17.8602 34.4752C17.8208 34.5122 17.8602 34.6249 17.7448 34.5878C17.8602 34.9616 18.2427 34.9987 18.5113 35.2611C18.5873 35.2611 18.5873 35.2611 18.6267 35.2241C18.7406 35.4865 19.0472 35.448 19.2399 35.5978C19.2399 35.5236 19.3538 35.3738 19.4691 35.4551C19.6224 35.381 19.4311 35.6434 19.5071 35.7547C19.5519 35.741 19.5994 35.7373 19.6459 35.744C19.6924 35.7506 19.7368 35.7675 19.7757 35.7932C19.891 35.7547 20.0823 35.7547 20.1203 35.8303C20.1838 35.8896 20.2642 35.9289 20.3509 35.943C20.3889 35.8303 20.5802 35.943 20.6575 35.8303V35.7932L20.8035 35.8674L20.7262 35.9801C20.8795 36.0543 20.8035 35.9045 20.8795 35.8674C20.9948 35.7932 20.9948 35.8674 21.0328 35.9045C20.9948 35.943 20.9568 35.9045 20.9189 35.9045C20.8415 35.9801 20.9948 35.943 20.9948 35.9801C20.9948 35.9801 21.0328 35.8674 21.1101 35.9045C21.1861 35.9045 21.3788 35.9045 21.3788 35.9801C21.4167 35.9045 21.5321 35.9045 21.57 35.8674C21.5321 35.8674 21.3788 35.8674 21.3788 35.7932C21.4167 35.7932 21.5321 35.7176 21.57 35.7932H21.5321C21.57 35.7932 21.7613 35.7932 21.646 35.6805L21.7993 35.7932C21.7993 35.7176 21.9146 35.6805 21.992 35.6506C22.0299 35.7618 21.992 35.9116 22.138 35.9116L22.2519 35.769C22.3292 35.769 22.3292 35.769 22.3672 35.8446C22.6358 35.8446 22.5585 35.4694 22.7512 35.5079C22.7118 35.6577 22.7891 35.6577 22.8972 35.6577V35.5821C22.8578 35.545 22.8972 35.6948 22.7818 35.6192C22.7439 35.545 22.8578 35.545 22.8972 35.5079C23.2038 35.7319 23.5483 35.3653 23.817 35.3653C23.7396 35.2155 23.8929 35.2897 23.9309 35.177C23.9703 35.3268 24.0462 35.1028 24.1995 35.1399L24.0842 34.9901C24.3148 34.9901 24.2302 34.6164 24.4302 34.7662C24.5441 34.7662 24.4681 34.8774 24.4302 34.9159C24.6594 34.9901 24.6974 34.5779 24.8901 34.7276C24.8901 34.6535 24.7747 34.6164 24.8507 34.4666C24.966 34.4666 25.1967 34.4281 25.1967 34.4666C25.2346 34.391 25.2346 34.3168 25.35 34.3168V34.4281C25.5033 34.391 25.5412 34.2412 25.6172 34.1285C25.7632 34.2041 25.9238 33.9859 26.0771 33.9416C26.0391 33.7548 26.3077 33.829 26.1924 33.6421L26.2304 33.6792C26.2304 33.605 26.1924 33.4552 26.2304 33.4181L26.3077 33.5294C26.4231 33.672 26.499 33.4181 26.5764 33.4552C26.461 33.4181 26.6143 33.3796 26.5764 33.3126L26.6143 33.1999C26.6903 33.0872 26.5764 33.1628 26.6903 33.013C26.7297 32.9374 26.8363 33.0872 26.8056 33.0872C26.9209 33.0872 26.9589 32.9374 26.9969 32.8632C26.9589 32.9003 26.9589 32.9374 26.9209 32.8632H26.9969C27.0153 32.8405 27.0385 32.822 27.065 32.8089C27.0915 32.7959 27.1205 32.7886 27.1502 32.7876L27.2275 32.8632C27.2463 32.8219 27.256 32.7772 27.256 32.732C27.256 32.6868 27.2463 32.6421 27.2275 32.6008C27.4404 32.428 27.5888 32.1913 27.6495 31.9275C27.6101 31.9646 27.6495 32.0387 27.6495 32.0016C27.6874 31.9275 27.6495 31.7777 27.7254 31.8148C27.7254 31.7392 27.8407 31.8148 27.9167 31.7021C27.9167 31.7021 27.8407 31.6279 27.8407 31.665C28.1094 31.5894 28.032 31.2157 28.2627 31.0288C28.2233 31.0288 28.2627 31.103 28.3006 31.1401C28.3386 30.9532 28.416 30.7663 28.3766 30.5794C28.416 30.6165 28.4539 30.6165 28.4539 30.6536C28.4851 30.5697 28.4981 30.4803 28.4919 30.3911C28.4666 30.3884 28.4427 30.3786 28.4229 30.363C28.4032 30.3474 28.3884 30.3265 28.3805 30.3029C28.3725 30.2794 28.3716 30.254 28.3779 30.23C28.3842 30.2059 28.3974 30.1841 28.416 30.1672C28.4539 30.0545 28.416 30.0174 28.4539 29.9047C28.5299 29.8676 28.4539 29.9803 28.5299 29.9803C28.6452 30.0174 28.7226 29.9047 28.7605 29.8305C28.3766 29.7549 27.9561 29.6422 27.5721 29.5296C27.3648 29.6137 27.2115 29.9561 27.0188 30.2884Z" fill="white"/>
<path fill-rule="evenodd" clip-rule="evenodd" d="M15.867 27.7421H15.7899C15.7899 27.7792 15.8277 27.8162 15.867 27.7792V27.7421Z" fill="#83CDF2"/>
<path fill-rule="evenodd" clip-rule="evenodd" d="M23.9142 16.2461L23.7236 16.5086C23.7978 16.433 23.9142 16.3203 23.9142 16.2461Z" fill="#83CDF2"/>
<path fill-rule="evenodd" clip-rule="evenodd" d="M20.3125 17.4443C20.3503 17.3316 20.2354 17.3316 20.167 17.2946C20.1597 17.3702 20.2732 17.403 20.3125 17.4443Z" fill="#83CDF2"/>
<path fill-rule="evenodd" clip-rule="evenodd" d="M23.1863 16.6898C23.2255 16.6898 23.2255 16.6527 23.2634 16.6156C23.2634 16.6156 23.1863 16.5771 23.1863 16.6156C23.1863 16.6541 23.2255 16.6898 23.1863 16.6898Z" fill="#83CDF2"/>
<path fill-rule="evenodd" clip-rule="evenodd" d="M19.929 17.4815C20.121 17.4444 19.8912 17.4815 20.0061 17.3688C19.929 17.3688 19.929 17.403 19.929 17.4815Z" fill="#83CDF2"/>
<path fill-rule="evenodd" clip-rule="evenodd" d="M26.176 15.2719C26.1381 15.2348 26.0988 15.3105 26.061 15.3475C26.0988 15.4231 26.1338 15.2348 26.176 15.2719Z" fill="#83CDF2"/>
<path fill-rule="evenodd" clip-rule="evenodd" d="M24.6434 15.9836C24.6812 16.0592 24.7205 15.9836 24.7583 15.9836C24.7205 15.9836 24.6812 15.9466 24.6434 15.9836Z" fill="#83CDF2"/>
<path fill-rule="evenodd" clip-rule="evenodd" d="M24.6813 16.1334V16.209C24.7584 16.1719 24.7584 16.1334 24.6813 16.1334Z" fill="#83CDF2"/>
<path fill-rule="evenodd" clip-rule="evenodd" d="M26.6741 14.9353C26.6741 14.9353 26.7119 14.8611 26.6741 14.8611L26.6362 14.8982L26.6741 14.9353Z" fill="#83CDF2"/>
</g>
<defs>
<clipPath id="clip0_22:16">
<rect width="292" height="36" fill="white"/>
</clipPath>
</defs>
</svg>
