<svg version="1.1" id="Layer_1" xmlns="http://www.w3.org/2000/svg" x="0" y="0" width="1920.001" height="336.228" xml:space="preserve" fill="#FFFFFF"><path d="M1919.977 106.188c-.115 6.914-6.32 12.54-13.931 12.54h-43.096c-4.437.984-8.947 1.946-13.499 2.913-3.15 2.329-5.211 5.844-5.211 9.833v186.129c0 7.011 2.742 12.746-4.932 12.746h-56.58c-7.677 0-13.952-5.735-13.952-12.746V131.475c0-1.334-.286-2.581-.701-3.795-1.796-5.157-5.445-8.952-11.671-8.952h-49.671c-7.674 0-13.952-5.729-13.952-12.735V70.479c0-6.988 6.279-12.74 13.952-12.74h199.314c1.978 0 3.865.406 5.574 1.093 4.922 1.969 8.382 6.456 8.382 11.647v35.514l-.026.195zm-278.518 224.099h-47.56c-7.677 0-13.949-5.729-13.949-12.723v-47.288c0-7-3.561-8.769-7.911-3.921l-5.375 5.134c-5.365 5.146-11.27 10.279-17.716 15.448a555.354 555.354 0 01-7.59 6.004h.01l-.017.023a469.535 469.535 0 01-6.69 5.174c-1.786 1.374-3.589 2.673-5.386 3.995-17.067 11.459-46.57 29.402-92.326 28.154h-21.068c-7.674 0-13.949-5.729-13.949-12.723V70.422c0-7 6.275-12.718 13.949-12.718h49.144c7.667 0 13.949 5.718 13.949 12.718V240.05c0 6.977 4.406 10.131 9.791 6.948 0 0 3.16 0 8.253-3.428 5.106-3.417 10.335-7.2 15.71-11.384 8.581-6.37 17.046-13.399 25.352-21.12a431.568 431.568 0 0023.36-23.318c1.486-1.7 2.927-3.354 4.35-5.008a357.055 357.055 0 005.504-6.565 265.29 265.29 0 008.657-11.218V70.422c0-7 6.272-12.718 13.949-12.718h47.56c7.674 0 13.952 5.718 13.952 12.718v247.141c-.001 6.995-6.279 12.724-13.953 12.724zM1577.278 31.17c-13.53 7.652-28.847 11.47-45.959 11.47-16.774 0-31.923-3.818-45.447-11.47-6.059-3.446-10.984-7.446-14.884-12.008C1458.564 3.446 1475.174 0 1475.174 0h108.177c9.791 0 14.814 6.771 11.158 15.059 0 0-3.715 8.442-17.231 16.111zm-226.971 299.18h-49.22c-14.598 0-18.79-8.574-20.011-12.483a202.99 202.99 0 00-.359-1.82 272.95 272.95 0 01-.896-4.573h-79.808V250.02h63.874a2836.545 2836.545 0 00-7.437-23.976h.007c-.889-2.896-1.761-5.775-2.522-8.316-.045-.824-.15-1.654-.415-2.535 0 0-.314-1.082-2.086-5.975-.216-.601-.45-1.219-.708-1.935-2.421-6.611-4.828-12.987-7.248-19.099l-.185-.458c-4.235-10.337-8.26-19.197-12.086-26.563-3.896-7.458-6.387-12.306-7.454-14.509-7.001 13.633-13.401 27.931-19.387 42.686-.896 2.192-1.873 4.321-2.748 6.536-4.66 11.91-8.867 33.666-12.875 45.565-1.563.114-3.125.223-4.685.332h-79.867c4.238-13.462 8.804-36.591 13.569-49.703 7.004-19.265 14.514-38.176 22.662-56.594 11.849-26.815 23.984-49.817 36.43-69.009 1.569-2.272 7.137-8.728 19.858-8.728h52.942c7.681 0 17.155 4.951 21.061 10.949 0 0 13.893 21.475 22.882 38.491 8.985 16.999 17.109 34.101 24.354 51.243 3.544 8.385 6.84 16.695 9.994 24.983 4.332 11.396 8.35 22.705 12.02 33.94 3.554 10.852 6.899 21.675 9.784 32.384l.087.292h.474v1.803c6.296 23.409 11.41 45.021 15.355 64.836.532 4.344-.078 13.69-15.356 13.69zm-268.179-216.784l-6.753-.853c-6.763-.813-13.966-1.087-21.609-.795-29.481 1.116-51.854 9.346-67.118 24.737-14.933 15.036-21.972 34.295-21.243 57.625.025.504-.01 1.002.01 1.494 1.04 23.054 6.963 40.11 17.755 51.134 10.785 11.024 22.467 18.584 35.048 22.682 6.68 1.9 13.203 4.613 19.561 5.203 5.124.509 9.7.715 13.767.698h111.18v57.773h-77.799l-295.554.395h.004-4.22l-5.78.012c-4.517-.12-9.798-.498-13.077-.727-37.49-2.856-65.883-12.803-85.12-32.819-24.225-25.172-38.373-53.481-42.429-84.851a123.08 123.08 0 01-.924-7.36 135.408 135.408 0 01-.541-7.378c-.199-4.298-.195-8.482-.066-12.626 1.071-35.251 13.764-65.008 38.156-89.19 27.256-27.038 66.557-41.518 117.898-43.47 10.527-.401 20.357-.223 29.492.521 9.135.71 17.828 1.912 26.073 3.52l2.072 45.531c.321 6.88-4.556 11.458-10.81 10.188l-6.76-.818c-6.764-.801-13.967-1.076-21.598-.796-29.489 1.116-51.861 9.375-67.118 24.76-13.925 14.017-20.953 31.714-21.263 52.943-.024 2.055-.077 4.064.021 6.17 1.05 23.054 6.969 40.116 17.754 51.151 10.785 11.001 22.47 18.556 35.052 22.648 6.68 1.917 13.206 3.177 19.558 3.795 5.135.475 9.704.687 13.778.664l94.877-.189c-12.822-19.013-20.775-39.492-23.622-61.562-.38-2.37-.691-4.837-.931-7.372a139.114 139.114 0 01-.537-7.372c-.08-1.666-.087-3.303-.119-4.911-.642-38.662 12.072-70.966 38.209-96.899 27.256-27.015 66.563-41.536 117.898-43.459 10.527-.389 20.36-.223 29.495.504 9.135.755 17.814 1.929 26.073 3.531l2.068 45.542c.315 6.855-4.547 11.457-10.808 10.226zM561.706 300.021c-29.939 24.153-66.623 36.207-110.102 36.207-44.017 0-80.854-12.054-110.5-36.207-29.663-24.119-44.484-59.433-44.484-105.977 0-8.351.495-16.329 1.437-23.976.3-2.358.757-4.648 1.141-6.966 5.323-31.726 19.199-56.937 41.906-75.413 29.645-24.13 66.483-36.173 110.5-36.173 43.479 0 80.163 12.042 110.102 36.173 28.281 22.814 43.183 55.764 44.728 98.817.087 2.478.154 4.974.154 7.538 0 9.507-.656 18.504-1.905 27.055-4.852 33.397-19.156 59.737-42.977 78.922zm-43.147-118.397c-1.653-16.455-6.624-31.182-15.023-44.157-10.464-16.157-27.776-24.245-51.931-24.245-24.696 0-42.14 8.087-52.332 24.245-6.488 10.308-10.834 21.692-13.185 34.147a118.649 118.649 0 00-1.95 16.902c-.077 1.837-.16 3.657-.16 5.529 0 21.566 5.166 40.414 15.498 56.571 10.321 16.186 27.706 24.256 52.13 24.256 24.155 0 41.467-8.07 51.931-24.256 7.702-11.899 12.554-25.269 14.58-40.099a120.739 120.739 0 001.116-16.472c-.001-4.265-.263-8.385-.674-12.421zm-378.316 87.004c-1.329 0-2.648-.029-3.969-.075-9.516-.194-9.721-10.028-9.721-10.028v-44.277c0-5.477 4.001-6.839 6.066-7.195l.394-.057c.464-.052.802-.069.802-.069l-.045-.023c10.105-1.328 18.731-4.67 25.801-10.096 9.387-7.217 14.085-18.304 14.085-33.259 0-1.705-.202-4.573-.603-8.631-.216-2.221-.816-4.51-1.716-6.92a41.296 41.296 0 00-2.913-6.118 32.965 32.965 0 00-2.822-4.224c-.258-.326-.593-.653-.876-.984-.82-.945-1.653-1.895-2.56-2.759l-.46-.498-.199-.069c-12.606-11.424-32.474-13.908-40.612-14.44l-.154-.074c-.453-.023-.942-.017-1.402-.023-1.298-.074-2.093-.074-2.093-.074l.028.017c-.666-.006-1.301-.023-1.985-.023H90.998c-7.677 0-13.952 5.712-13.952 12.746v186.129c0 7.011-6.275 12.746-13.949 12.746H13.945C6.271 330.35 0 324.615 0 317.604V70.479c0-4.367 2.442-8.225 6.146-10.543a14.925 14.925 0 017.799-2.198h103.087c7.67 0 20.168.796 27.772 1.734 0 0 14.085 1.78 30.978 5.649h-.021l.052.011c5.093 1.179 10.444 2.541 15.738 4.109 17.953 6.273 46.776 21.429 62.416 56.583 3.157 7.893 5.26 16.072 6.237 24.508.262 2.209.467 4.464.6 6.788.049.841.049 1.608.073 2.41.028.973.073 1.98.084 2.936.01.464.045.973.045 1.454 0 29.396-10.332 54.196-30.992 74.4-20.669 20.189-50.59 30.308-89.771 30.308z"/></svg>